<svg width="24" height="25" viewBox="0 0 24 25" fill="none" xmlns="http://www.w3.org/2000/svg">
<path d="M13.0056 2.98516L18.9056 5.66376C20.6056 6.43053 20.6056 7.69827 18.9056 8.46504L13.0056 11.1436C12.3356 11.4504 11.2356 11.4504 10.5656 11.1436L4.66563 8.46504C2.96563 7.69827 2.96563 6.43053 4.66563 5.66376L10.5656 2.98516C11.2356 2.67845 12.3356 2.67845 13.0056 2.98516Z" stroke="black" stroke-opacity="0.6" stroke-width="1.5" stroke-linecap="round" stroke-linejoin="round"/>
<path d="M3 11.246C3 12.1048 3.63 13.0965 4.4 13.4441L11.19 16.5317C11.71 16.7668 12.3 16.7668 12.81 16.5317L19.6 13.4441C20.37 13.0965 21 12.1048 21 11.246" stroke="black" stroke-opacity="0.6" stroke-width="1.5" stroke-linecap="round" stroke-linejoin="round"/>
<path d="M3 16.3578C3 17.3086 3.55 18.1674 4.4 18.5559L11.19 21.6435C11.71 21.8786 12.3 21.8786 12.81 21.6435L19.6 18.5559C20.45 18.1674 21 17.3086 21 16.3578" stroke="black" stroke-opacity="0.6" stroke-width="1.5" stroke-linecap="round" stroke-linejoin="round"/>
</svg>
