<svg width="44" height="39" viewBox="0 0 44 39" fill="none" xmlns="http://www.w3.org/2000/svg">
<g clip-path="url(#clip0_3_2448)">
<path d="M26.3193 3.56085C26.2492 3.72814 26.1623 3.889 26.0595 4.04123C25.2024 5.3109 23.6827 6.7155 21.9833 8.15635C19.7021 6.88613 17.412 5.83393 16.2669 4.33676C15.7761 3.69496 15.5982 2.86664 15.7919 2.08459C15.8479 1.85793 15.9213 1.64994 16.0105 1.46091C16.9246 -0.483176 19.4654 -0.456689 21.2918 1.36027C23.2204 -0.841437 26.4361 0.115692 26.5213 2.47185C26.5351 2.84712 26.4631 3.21737 26.3193 3.56085Z" fill="#EE2F43"/>
<path d="M26.3466 18.2638C26.2686 18.4221 26.1842 18.5766 26.0953 18.7288C26.0942 18.7299 26.0928 18.7324 26.0916 18.7338C26.0719 18.767 26.0519 18.8002 26.0322 18.8331C26.0297 18.8381 26.0261 18.8428 26.0235 18.8479C26.01 18.8699 25.9962 18.8933 25.9813 18.9153C25.9554 18.9572 25.9307 18.9976 25.9034 19.038C25.5479 19.5853 25.1255 20.0908 24.655 20.5497C24.3578 20.8394 24.0418 21.1117 23.7125 21.3632C23.7002 21.3719 23.6867 21.3816 23.6743 21.3914C22.6933 22.1313 21.6033 22.6505 20.4726 23.0946C20.4726 23.0946 20.4726 23.0946 20.4715 23.0957C19.82 23.3017 19.1376 23.4478 18.4355 23.5251C17.6132 23.6146 16.7622 23.6084 15.8965 23.4944C14.1912 23.2674 12.5835 22.5607 11.2904 21.4563H11.2892C11.0292 21.2341 10.7827 20.9963 10.5499 20.7434C8.09883 18.0809 8.31186 15.0868 9.46003 12.1948C11.8132 7.53211 17.1922 6.22787 20.0508 7.89288L17.762 10.1593C12.1762 10.9728 10.2975 15.957 14.0218 19.4651C15.2417 20.6135 16.9929 21.0234 18.6142 20.5756L18.6364 20.5695C19.0475 20.4554 19.4365 20.3227 19.8006 20.173C20.7754 19.7766 21.5755 19.2624 22.176 18.6736C23.2114 17.6588 23.6535 16.4184 23.3774 15.1607H27.0552C27.0971 16.2341 26.8258 17.3041 26.3466 18.2638Z" fill="url(#paint0_linear_3_2448)"/>
<path d="M27.0549 15.1602H23.3765C23.1846 14.2864 22.6471 13.4054 21.7207 12.5835L24.0837 10.4459C24.6474 10.7871 25.17 11.1981 25.6121 11.6841C26.406 12.5553 26.915 13.651 27.0315 14.8203C27.0425 14.9329 27.0512 15.0472 27.0549 15.1602Z" fill="url(#paint1_linear_3_2448)"/>
<path d="M27.5347 21.0769L22.1757 26.0454L18.4349 23.5248C19.1379 23.4484 19.8195 23.3017 20.4718 23.0954C20.4723 23.0952 20.4726 23.0952 20.4735 23.0949C21.6033 22.6505 22.693 22.1313 23.6746 21.3914C23.6875 21.3816 23.7002 21.3724 23.7123 21.363C24.0424 21.1115 24.3587 20.8399 24.6558 20.5494C25.4795 20.9498 26.4141 21.1672 27.5347 21.0769Z" fill="url(#paint2_linear_3_2448)"/>
<path d="M22.1763 18.6731C21.3501 19.483 20.1487 20.1504 18.6353 20.5689V20.4019C15.7147 17.3858 14.7264 12.6668 20.8905 8.32782L21.833 9.20633L21.8479 9.19517L22.9539 10.2309C19.0529 13.593 18.5053 16.4496 22.1763 18.6731Z" fill="url(#paint3_linear_3_2448)"/>
<path d="M35.3642 16.8547C35.3482 17.5748 35.2292 18.2964 34.979 18.9739C34.7772 19.5237 34.4823 19.9935 34.1429 20.4671C31.9147 23.5752 28.8408 24.6366 25.4286 24.352L28.4085 21.5863C30.9252 19.488 33.1892 16.553 30.332 12.6671C28.9412 10.6132 26.532 9.86708 23.795 9.53948C23.499 9.77256 23.2189 10.0034 22.9541 10.2315L21.8482 9.19572L22.9727 8.32809C23.4545 7.95616 23.8794 7.51817 24.4268 7.23602C24.6286 7.13175 24.843 7.05452 25.0684 7.02496C25.3991 6.98091 25.7545 7.04337 26.0866 7.06428C26.3367 7.07905 26.5858 7.10359 26.8334 7.13788C27.3116 7.20284 27.7835 7.30237 28.2467 7.43731C29.1247 7.69242 29.9633 8.0741 30.7324 8.56507C31.4706 9.03624 32.1418 9.60695 32.7302 10.251C33.3012 10.8755 33.7942 11.57 34.1966 12.3136C34.583 13.0276 34.8864 13.7884 35.0884 14.5749C35.2787 15.3182 35.3803 16.0863 35.3642 16.8547Z" fill="url(#paint4_linear_3_2448)"/>
<path d="M0.203461 28.0567H2.02703C2.87296 28.0567 3.48419 28.1788 3.86101 28.4231C4.23782 28.6673 4.42609 29.0532 4.42609 29.5804C4.42609 29.9356 4.33378 30.2311 4.14889 30.467C3.964 30.7028 3.69778 30.8514 3.35052 30.9125V30.954C3.78193 31.0346 4.09908 31.1933 4.30226 31.4305C4.50544 31.6678 4.60675 31.989 4.60675 32.3941C4.60675 32.9408 4.41427 33.3688 4.02901 33.6782C3.64375 33.9877 3.10822 34.1424 2.42185 34.1424H0.203461V28.0567ZM1.20755 30.571H2.17392C2.59408 30.571 2.90082 30.5052 3.09415 30.3733C3.28748 30.2414 3.38401 30.0173 3.38401 29.7011C3.38401 29.4153 3.2796 29.2085 3.07107 29.0808C2.86226 28.9531 2.53104 28.8892 2.0774 28.8892H1.20755V30.571ZM1.20755 31.3784V33.3057H2.27467C2.69482 33.3057 3.01198 33.226 3.22642 33.0665C3.44057 32.9071 3.54779 32.6553 3.54779 32.311C3.54779 31.9945 3.4386 31.7601 3.21994 31.6076C3.00156 31.4551 2.6695 31.3787 2.2243 31.3787H1.20755V31.3784Z" fill="#010101"/>
<path d="M5.72003 28.3191C5.72003 28.1443 5.76844 28.0096 5.86496 27.9154C5.96149 27.8211 6.09938 27.7737 6.27892 27.7737C6.45255 27.7737 6.58763 27.8209 6.68444 27.9154C6.78096 28.0096 6.82937 28.1443 6.82937 28.3191C6.82937 28.4855 6.78096 28.6168 6.68444 28.7125C6.58791 28.8081 6.45255 28.8561 6.27892 28.8561C6.09966 28.8561 5.96177 28.8081 5.86496 28.7125C5.76844 28.6166 5.72003 28.4855 5.72003 28.3191ZM6.76605 34.1424H5.77857V29.5386H6.76605V34.1424Z" fill="#010101"/>
<path d="M7.47211 29.5386H8.54768L9.49295 32.1484C9.63591 32.5204 9.73103 32.87 9.77859 33.1973H9.81208C9.8374 33.0448 9.88356 32.8594 9.95081 32.6416C10.0181 32.4239 10.3738 31.3895 11.0179 29.5386H12.0851L10.0977 34.7541C9.73638 35.7115 9.13415 36.1902 8.29103 36.1902C8.07265 36.1902 7.85962 36.1665 7.6525 36.1194V35.3452C7.80081 35.3784 7.9705 35.3951 8.16102 35.3951C8.63717 35.3951 8.97177 35.1219 9.1651 34.5751L9.33733 34.1422L7.47211 29.5386Z" fill="#010101"/>
<path d="M14.8204 34.2255C14.0977 34.2255 13.5327 34.0167 13.1252 33.599C12.7177 33.1814 12.5139 32.6062 12.5139 31.8735C12.5139 31.1216 12.703 30.5305 13.0813 30.1003C13.4595 29.6702 13.979 29.4552 14.64 29.4552C15.2535 29.4552 15.7381 29.6398 16.0938 30.0089C16.4495 30.378 16.6274 30.8857 16.6274 31.5323V32.0609H13.5307C13.5448 32.5078 13.6666 32.851 13.8962 33.0911C14.1259 33.3311 14.4495 33.451 14.8668 33.451C15.1412 33.451 15.397 33.4253 15.6337 33.374C15.8704 33.3227 16.1245 33.2374 16.3963 33.1181V33.9133C16.1554 34.027 15.9117 34.1076 15.6652 34.1547C15.4184 34.2021 15.137 34.2255 14.8204 34.2255ZM14.6397 30.1963C14.326 30.1963 14.0747 30.2947 13.8856 30.4918C13.6964 30.6889 13.5836 30.9761 13.5473 31.3536H15.6565C15.6509 30.9733 15.5583 30.6856 15.3793 30.4898C15.2 30.2941 14.9535 30.1963 14.6397 30.1963Z" fill="#010101"/>
<path d="M24.778 34.1424H23.614L21.6855 31.3867L21.0931 31.8655V34.1424H20.0891V28.0567H21.0931V30.9621C21.3675 30.6292 21.6408 30.3086 21.9123 30.0005L23.5718 28.0567H24.7147C23.6419 29.3055 22.8731 30.1949 22.4079 30.7249L24.778 34.1424Z" fill="#010101"/>
<path d="M29.6056 31.832C29.6056 32.5839 29.4109 33.1711 29.0217 33.5926C28.6322 34.0145 28.0902 34.2252 27.3957 34.2252C26.9615 34.2252 26.5779 34.1282 26.2444 33.9339C25.911 33.7396 25.6549 33.4608 25.4756 33.0972C25.2963 32.7336 25.2066 32.3118 25.2066 31.8317C25.2066 31.0854 25.3999 30.5024 25.7863 30.0833C26.173 29.6643 26.7175 29.4549 27.4207 29.4549C28.093 29.4549 28.6252 29.6693 29.0172 30.0981C29.4095 30.5272 29.6056 31.1052 29.6056 31.832ZM26.2233 31.832C26.2233 32.8948 26.6196 33.4262 27.4123 33.4262C28.1966 33.4262 28.5886 32.8948 28.5886 31.832C28.5886 30.7804 28.1938 30.2545 27.4039 30.2545C26.9893 30.2545 26.6888 30.3906 26.5028 30.6624C26.3165 30.9345 26.2233 31.3243 26.2233 31.832Z" fill="#010101"/>
<path d="M33.0972 29.4552C33.2961 29.4552 33.4599 29.4691 33.5888 29.4967L33.4923 30.4084C33.3521 30.3753 33.2066 30.3585 33.0552 30.3585C32.6604 30.3585 32.3402 30.4862 32.095 30.7416C31.8499 30.997 31.7275 31.3285 31.7275 31.7364V34.1424H30.7403V29.5386H31.5134L31.6437 30.3502H31.694C31.848 30.0755 32.0492 29.8575 32.2968 29.6966C32.5445 29.5358 32.8112 29.4552 33.0972 29.4552Z" fill="#010101"/>
<path d="M37.7273 34.1424L37.5885 33.5388H37.5382C37.4008 33.7527 37.2055 33.9205 36.952 34.0426C36.6984 34.1647 36.4091 34.2258 36.0844 34.2258C35.5213 34.2258 35.1011 34.087 34.8239 33.8095C34.5467 33.5321 34.408 33.1117 34.408 32.5482V29.5388H35.4036V32.3776C35.4036 32.73 35.4765 32.9943 35.622 33.1705C35.7675 33.3467 35.996 33.4348 36.307 33.4348C36.7215 33.4348 37.026 33.3122 37.2207 33.0665C37.4155 32.8209 37.5128 32.4097 37.5128 31.8323V29.5388H38.5043V34.1427H37.7273V34.1424Z" fill="#010101"/>
<path d="M44 34.1424H43.0086V31.312C43.0086 30.9568 42.9365 30.6917 42.7922 30.5169C42.6478 30.3421 42.4187 30.2545 42.1052 30.2545C41.6879 30.2545 41.3826 30.3766 41.1892 30.6209C40.9959 30.8651 40.8994 31.2744 40.8994 31.8487V34.1421H39.9122V29.5383H40.6852L40.824 30.1419H40.8743C41.0145 29.9228 41.2131 29.7535 41.4709 29.6342C41.7287 29.5149 42.0143 29.4552 42.3281 29.4552C43.4428 29.4552 44.0003 30.0173 44.0003 31.1411V34.1424H44Z" fill="#010101"/>
<path d="M0.74406 38.9769L0.244831 37.5527H0.235544C0.24877 37.7643 0.255524 37.9626 0.255524 38.1474V38.9766H0V37.2714H0.396794L0.874636 38.6278H0.881672L1.37358 37.2714H1.7715V38.9766H1.50078V38.1335C1.50078 38.0487 1.50303 37.9383 1.50726 37.8023C1.51148 37.6662 1.51542 37.5837 1.51851 37.555H1.50923L0.992549 38.9766H0.74406V38.9769Z" fill="#00A86C"/>
<path d="M3.00748 39C2.80514 39 2.6467 38.9415 2.53245 38.8244C2.4182 38.7073 2.36107 38.5461 2.36107 38.3409C2.36107 38.1301 2.41397 37.9645 2.52007 37.8441C2.62616 37.7236 2.77165 37.6634 2.95682 37.6634C3.12877 37.6634 3.26441 37.715 3.36403 37.8184C3.46365 37.9219 3.51346 38.0641 3.51346 38.2453V38.3933H2.64614C2.65008 38.5185 2.68413 38.6147 2.74858 38.6819C2.81302 38.7491 2.90364 38.7828 3.02042 38.7828C3.09725 38.7828 3.16901 38.7756 3.23514 38.7613C3.30156 38.7468 3.37275 38.7231 3.44874 38.6897V38.9125C3.3812 38.9442 3.31309 38.9668 3.24387 38.9802C3.17492 38.9936 3.09612 39 3.00748 39ZM2.95682 37.8711C2.86902 37.8711 2.79839 37.8987 2.74548 37.9539C2.69257 38.0091 2.66078 38.0897 2.65064 38.1954H3.24161C3.23993 38.0889 3.21404 38.0083 3.16394 37.9534C3.11385 37.8987 3.04462 37.8711 2.95682 37.8711Z" fill="#00A86C"/>
<path d="M4.63996 39C4.43763 39 4.27919 38.9415 4.16493 38.8244C4.05068 38.7073 3.99355 38.5461 3.99355 38.3409C3.99355 38.1301 4.04646 37.9645 4.15255 37.8441C4.25865 37.7236 4.40414 37.6634 4.58931 37.6634C4.76125 37.6634 4.89689 37.715 4.99651 37.8184C5.09614 37.9219 5.14595 38.0641 5.14595 38.2453V38.3933H4.27834C4.28228 38.5185 4.31634 38.6147 4.38078 38.6819C4.44522 38.7491 4.53584 38.7828 4.65263 38.7828C4.72945 38.7828 4.80121 38.7756 4.86735 38.7613C4.93376 38.7468 5.00496 38.7231 5.08094 38.6897V38.9125C5.0134 38.9442 4.9453 38.9668 4.87607 38.9802C4.80769 38.9936 4.72861 39 4.63996 39ZM4.58931 37.8711C4.50151 37.8711 4.43087 37.8987 4.37797 37.9539C4.32506 38.0091 4.29326 38.0897 4.28313 38.1954H4.8741C4.87241 38.0889 4.84652 38.0083 4.79643 37.9534C4.74634 37.8987 4.67739 37.8711 4.58931 37.8711Z" fill="#00A86C"/>
<path d="M6.18915 38.7786C6.25669 38.7786 6.32423 38.768 6.39148 38.7471V38.9535C6.36081 38.9666 6.32141 38.9777 6.27329 38.9866C6.22517 38.9956 6.17508 39 6.1233 39C5.8613 39 5.73016 38.8631 5.73016 38.5896V37.8946H5.55231V37.7733L5.74311 37.6729L5.83738 37.4H6.0082V37.6869H6.3791V37.8946H6.0082V38.5849C6.0082 38.6509 6.0248 38.6997 6.05829 38.7312C6.09122 38.7627 6.13483 38.7786 6.18915 38.7786Z" fill="#00A86C"/>
<path d="M9.32214 38.122C9.32214 38.3997 9.25206 38.6152 9.11192 38.7694C8.97178 38.9233 8.77338 39.0003 8.51673 39.0003C8.25698 39.0003 8.05746 38.9239 7.91816 38.7711C7.77886 38.6183 7.70935 38.4011 7.70935 38.1198C7.70935 37.8385 7.77942 37.6221 7.91957 37.4713C8.05971 37.3205 8.25952 37.2452 8.51926 37.2452C8.77507 37.2452 8.9729 37.3219 9.11248 37.4749C9.25235 37.6277 9.32214 37.8435 9.32214 38.122ZM8.00849 38.122C8.00849 38.332 8.05127 38.4912 8.13682 38.5996C8.22237 38.7081 8.34901 38.7624 8.51701 38.7624C8.68417 38.7624 8.81024 38.7089 8.89551 38.6016C8.98078 38.4942 9.02327 38.3345 9.02327 38.1223C9.02327 37.9132 8.98106 37.7546 8.89664 37.6464C8.81221 37.5382 8.68642 37.4844 8.51926 37.4844C8.35041 37.4844 8.22321 37.5385 8.13738 37.6464C8.05155 37.7543 8.00849 37.9129 8.00849 38.122Z" fill="#00A86C"/>
<path d="M11.0514 38.9769H10.7737V38.184C10.7737 38.0844 10.7534 38.0103 10.7132 37.9612C10.6726 37.9121 10.6085 37.8879 10.5207 37.8879C10.4036 37.8879 10.3183 37.9222 10.264 37.9905C10.21 38.0588 10.1827 38.1736 10.1827 38.3345V38.9772H9.90607V37.6874H10.1228L10.1616 37.8566H10.1757C10.2148 37.7953 10.2705 37.7479 10.3428 37.7145C10.4152 37.681 10.4951 37.6643 10.5829 37.6643C10.8952 37.6643 11.0514 37.8218 11.0514 38.1366V38.9769Z" fill="#00A86C"/>
<path d="M11.9565 38.9769H11.6798V37.1621H11.9565V38.9769Z" fill="#00A86C"/>
<path d="M12.5789 37.3453C12.5789 37.2962 12.5925 37.2586 12.6195 37.2321C12.6465 37.2056 12.6853 37.1925 12.7354 37.1925C12.7841 37.1925 12.8218 37.2056 12.8491 37.2321C12.8761 37.2586 12.8896 37.2962 12.8896 37.3453C12.8896 37.3919 12.8761 37.4287 12.8491 37.4554C12.8221 37.4822 12.7841 37.4956 12.7354 37.4956C12.685 37.4956 12.6465 37.4822 12.6195 37.4554C12.5925 37.4287 12.5789 37.3919 12.5789 37.3453ZM12.8722 38.9769H12.5956V37.6871H12.8722V38.9769Z" fill="#00A86C"/>
<path d="M14.6563 38.9769H14.3786V38.184C14.3786 38.0844 14.3583 38.0103 14.3181 37.9612C14.2776 37.9121 14.2134 37.8879 14.1256 37.8879C14.0085 37.8879 13.9233 37.9222 13.8689 37.9905C13.8149 38.0588 13.7876 38.1736 13.7876 38.3345V38.9772H13.511V37.6874H13.7277L13.7665 37.8566H13.7806C13.8197 37.7953 13.8754 37.7479 13.9477 37.7145C14.0201 37.681 14.1 37.6643 14.1878 37.6643C14.5002 37.6643 14.6563 37.8218 14.6563 38.1366V38.9769Z" fill="#00A86C"/>
<path d="M15.8535 39C15.6511 39 15.4927 38.9415 15.3785 38.8244C15.2642 38.7073 15.2071 38.5461 15.2071 38.3409C15.2071 38.1301 15.26 37.9645 15.3661 37.8441C15.4722 37.7236 15.6177 37.6634 15.8028 37.6634C15.9748 37.6634 16.1104 37.715 16.21 37.8184C16.3097 37.9219 16.3595 38.0641 16.3595 38.2453V38.3933H15.4919C15.4958 38.5185 15.5299 38.6147 15.5943 38.6819C15.6587 38.7491 15.7494 38.7828 15.8661 38.7828C15.943 38.7828 16.0147 38.7756 16.0809 38.7613C16.1473 38.7468 16.2185 38.7231 16.2945 38.6897V38.9125C16.2269 38.9442 16.1588 38.9668 16.0896 38.9802C16.0209 38.9936 15.9421 39 15.8535 39ZM15.8028 37.8711C15.715 37.8711 15.6444 37.8987 15.5915 37.9539C15.5386 38.0091 15.5068 38.0897 15.4967 38.1954H16.0876C16.0859 38.0889 16.06 38.0083 16.01 37.9534C15.9599 37.8987 15.8906 37.8711 15.8028 37.8711Z" fill="#00A86C"/>
<path d="M18.5204 38.0521H19.1536V38.908C19.0501 38.9414 18.9504 38.9651 18.8553 38.9791C18.7599 38.993 18.6569 39 18.5463 39C18.2857 39 18.0848 38.9236 17.9435 38.7708C17.8023 38.618 17.7316 38.4025 17.7316 38.1243C17.7316 37.8499 17.8113 37.635 17.9706 37.48C18.1298 37.3249 18.3491 37.2474 18.6285 37.2474C18.8083 37.2474 18.9786 37.2817 19.1393 37.35L19.0405 37.582C18.9009 37.5182 18.7611 37.4864 18.6215 37.4864C18.4377 37.4864 18.2925 37.5435 18.1858 37.6578C18.0792 37.7721 18.0257 37.9283 18.0257 38.1268C18.0257 38.335 18.0738 38.4937 18.1698 38.6021C18.266 38.7106 18.4042 38.765 18.5849 38.765C18.6758 38.765 18.7732 38.7538 18.8767 38.7312V38.2916H18.5202V38.0521H18.5204Z" fill="#EE2F43"/>
<path d="M20.3496 39C20.1473 39 19.9889 38.9415 19.8746 38.8244C19.7604 38.7073 19.7032 38.5461 19.7032 38.3409C19.7032 38.1301 19.7561 37.9645 19.8622 37.8441C19.9683 37.7236 20.1138 37.6634 20.299 37.6634C20.4709 37.6634 20.6066 37.715 20.7062 37.8184C20.8058 37.9219 20.8556 38.0641 20.8556 38.2453V38.3933H19.988C19.992 38.5185 20.026 38.6147 20.0905 38.6819C20.1549 38.7491 20.2455 38.7828 20.3623 38.7828C20.4391 38.7828 20.5109 38.7756 20.577 38.7613C20.6434 38.7468 20.7146 38.7231 20.7906 38.6897V38.9125C20.7231 38.9442 20.655 38.9668 20.5858 38.9802C20.5171 38.9936 20.4383 39 20.3496 39ZM20.299 37.8711C20.2112 37.8711 20.1406 37.8987 20.0877 37.9539C20.0347 38.0091 20.0029 38.0897 19.9928 38.1954H20.5838C20.5821 38.0889 20.5562 38.0083 20.5061 37.9534C20.456 37.8987 20.3871 37.8711 20.299 37.8711Z" fill="#EE2F43"/>
<path d="M21.8986 38.7786C21.9661 38.7786 22.0336 38.768 22.1009 38.7471V38.9535C22.0702 38.9666 22.0308 38.9777 21.9827 38.9866C21.9343 38.9956 21.8845 39 21.8327 39C21.5707 39 21.4396 38.8631 21.4396 38.5896V37.8946H21.2617V37.7733L21.4525 37.6729L21.5468 37.4H21.7176V37.6869H22.0885V37.8946H21.7176V38.5849C21.7176 38.6509 21.7342 38.6997 21.7677 38.7312C21.8006 38.7627 21.8445 38.7786 21.8986 38.7786Z" fill="#EE2F43"/>
<path d="M24.2478 38.9769L23.7486 37.5527H23.7393C23.7525 37.7643 23.7593 37.9626 23.7593 38.1474V38.9766H23.5037V37.2714H23.9005L24.3784 38.6278H24.3854L24.8773 37.2714H25.2752V38.9766H25.0045V38.1335C25.0045 38.0487 25.0068 37.9383 25.011 37.8023C25.0152 37.6662 25.0192 37.5837 25.0222 37.555H25.013L24.4963 38.9766H24.2478V38.9769Z" fill="#EE2F43"/>
<path d="M26.7574 38.9769L26.702 38.7973H26.6924C26.6297 38.8759 26.5664 38.9292 26.5031 38.9576C26.4395 38.9861 26.3578 39.0003 26.2582 39.0003C26.1302 39.0003 26.0306 38.966 25.9585 38.8977C25.8868 38.8294 25.8507 38.7323 25.8507 38.6072C25.8507 38.4742 25.9005 38.3738 26.0002 38.3063C26.0998 38.2386 26.2517 38.2018 26.4558 38.1957L26.6806 38.1887V38.1198C26.6806 38.0373 26.6612 37.9757 26.6224 37.935C26.5835 37.8943 26.5233 37.8736 26.4417 37.8736C26.375 37.8736 26.3111 37.8834 26.2498 37.9029C26.1884 37.9224 26.1296 37.9453 26.0733 37.9718L25.9838 37.7758C26.0545 37.7393 26.1319 37.7114 26.2157 37.6924C26.2996 37.6735 26.3789 37.6637 26.4535 37.6637C26.619 37.6637 26.7439 37.6994 26.8284 37.771C26.9128 37.8427 26.955 37.955 26.955 38.1081V38.9769H26.7574ZM26.3455 38.7903C26.4459 38.7903 26.5264 38.7625 26.5875 38.707C26.6483 38.6515 26.6787 38.5734 26.6787 38.4731V38.361L26.5115 38.368C26.3812 38.3727 26.2864 38.3942 26.2273 38.4326C26.1679 38.4711 26.1383 38.5299 26.1383 38.6094C26.1383 38.6668 26.1555 38.7114 26.1901 38.7429C26.2247 38.7744 26.2765 38.7903 26.3455 38.7903Z" fill="#EE2F43"/>
<path d="M28.2453 37.6637C28.301 37.6637 28.3469 37.6676 28.3829 37.6754L28.3559 37.9308C28.3168 37.9213 28.276 37.9168 28.2335 37.9168C28.1229 37.9168 28.0331 37.9525 27.9644 38.0242C27.8958 38.0958 27.8614 38.1887 27.8614 38.303V38.9771H27.5848V37.6874H27.8015L27.8381 37.9149H27.8522C27.8952 37.8379 27.9515 37.7769 28.021 37.7317C28.0905 37.6863 28.1651 37.6637 28.2453 37.6637Z" fill="#EE2F43"/>
<path d="M29.5283 37.6637C29.584 37.6637 29.6299 37.6676 29.6659 37.6754L29.6389 37.9308C29.5997 37.9213 29.5589 37.9168 29.5164 37.9168C29.4058 37.9168 29.3161 37.9525 29.2474 38.0242C29.1787 38.0958 29.1444 38.1887 29.1444 38.303V38.9771H28.8678V37.6874H29.0845L29.1211 37.9149H29.1351C29.1782 37.8379 29.2345 37.7769 29.304 37.7317C29.3735 37.6863 29.4481 37.6637 29.5283 37.6637Z" fill="#EE2F43"/>
<path d="M30.1341 37.3453C30.1341 37.2962 30.1477 37.2586 30.1747 37.2321C30.2017 37.2056 30.2405 37.1925 30.2906 37.1925C30.3393 37.1925 30.3773 37.2056 30.4043 37.2321C30.4313 37.2586 30.4448 37.2962 30.4448 37.3453C30.4448 37.3919 30.4313 37.4287 30.4043 37.4554C30.3773 37.4822 30.3393 37.4956 30.2906 37.4956C30.2405 37.4956 30.2017 37.4822 30.1747 37.4554C30.1477 37.4287 30.1341 37.3919 30.1341 37.3453ZM30.4274 38.9769H30.1508V37.6871H30.4274V38.9769Z" fill="#EE2F43"/>
<path d="M31.6349 39C31.4326 39 31.2742 38.9415 31.1599 38.8244C31.0456 38.7073 30.9885 38.5461 30.9885 38.3409C30.9885 38.1301 31.0414 37.9645 31.1475 37.8441C31.2533 37.7236 31.3991 37.6634 31.5843 37.6634C31.7562 37.6634 31.8919 37.715 31.9915 37.8184C32.0911 37.9219 32.1409 38.0641 32.1409 38.2453V38.3933H31.2733C31.2772 38.5185 31.3113 38.6147 31.3757 38.6819C31.4402 38.7491 31.5308 38.7828 31.6476 38.7828C31.7244 38.7828 31.7962 38.7756 31.8623 38.7613C31.9287 38.7468 31.9999 38.7231 32.0759 38.6897V38.9125C32.0084 38.9442 31.94 38.9668 31.871 38.9802C31.8024 38.9936 31.7236 39 31.6349 39ZM31.5843 37.8711C31.4965 37.8711 31.4258 37.8987 31.3729 37.9539C31.32 38.0091 31.2882 38.0897 31.2781 38.1954H31.8691C31.8674 38.0889 31.8415 38.0083 31.7914 37.9534C31.7413 37.8987 31.6721 37.8711 31.5843 37.8711Z" fill="#EE2F43"/>
<path d="M33.138 39C32.9756 39 32.8487 38.9417 32.7578 38.8252C32.6666 38.7087 32.6213 38.545 32.6213 38.3342C32.6213 38.1226 32.6674 37.9581 32.7595 37.8402C32.8518 37.7225 32.9792 37.6634 33.1427 37.6634C33.3138 37.6634 33.4441 37.7262 33.5336 37.8513H33.5477C33.5345 37.7588 33.5277 37.6857 33.5277 37.6322V37.1621H33.8055V38.9769H33.5888L33.5404 38.8076H33.5274C33.4388 38.9359 33.3091 39 33.138 39ZM33.2123 38.7786C33.3259 38.7786 33.409 38.7469 33.4607 38.6836C33.5125 38.6203 33.5393 38.5174 33.5407 38.3752V38.3367C33.5407 38.1742 33.5139 38.0588 33.4607 37.9905C33.4073 37.9222 33.3237 37.8879 33.21 37.8879C33.1126 37.8879 33.0378 37.9269 32.9852 38.005C32.9325 38.083 32.9064 38.1945 32.9064 38.339C32.9064 38.482 32.932 38.591 32.9829 38.666C33.0336 38.741 33.1101 38.7786 33.2123 38.7786Z" fill="#EE2F43"/>
<path d="M36.8715 38.122C36.8715 38.3997 36.8014 38.6152 36.6613 38.7694C36.5211 38.9233 36.3227 39.0003 36.0664 39.0003C35.8066 39.0003 35.6071 38.9239 35.4678 38.7711C35.3285 38.6183 35.259 38.4011 35.259 38.1198C35.259 37.8385 35.3291 37.6221 35.4692 37.4713C35.6093 37.3205 35.8092 37.2452 36.0689 37.2452C36.3247 37.2452 36.5225 37.3219 36.6621 37.4749C36.8017 37.6277 36.8715 37.8435 36.8715 38.122ZM35.5578 38.122C35.5578 38.332 35.6006 38.4912 35.6862 38.5996C35.7717 38.7081 35.8984 38.7624 36.0664 38.7624C36.2335 38.7624 36.3596 38.7089 36.4449 38.6016C36.5301 38.4942 36.5726 38.3345 36.5726 38.1223C36.5726 37.9132 36.5304 37.7546 36.446 37.6464C36.3616 37.5382 36.2358 37.4844 36.0686 37.4844C35.8998 37.4844 35.7726 37.5385 35.6867 37.6464C35.6009 37.7543 35.5578 37.9129 35.5578 38.122Z" fill="#EE2F43"/>
<path d="M38.1086 37.8946H37.7909V38.9769H37.5131V37.8946H37.299V37.7663L37.5131 37.6824V37.5985C37.5131 37.446 37.5491 37.3331 37.6215 37.2597C37.6938 37.1864 37.8038 37.1496 37.9521 37.1496C38.0495 37.1496 38.1452 37.1655 38.2394 37.1976L38.1666 37.4053C38.0982 37.3835 38.0332 37.3726 37.9713 37.3726C37.9085 37.3726 37.8629 37.3919 37.8342 37.4304C37.8055 37.4688 37.7912 37.5265 37.7912 37.6035V37.6874H38.1089V37.8946H38.1086ZM38.9832 37.8946H38.6655V38.9769H38.3877V37.8946H38.1736V37.7663L38.3877 37.6824V37.5985C38.3877 37.446 38.4238 37.3331 38.4961 37.2597C38.5684 37.1864 38.6784 37.1496 38.8268 37.1496C38.9241 37.1496 39.0198 37.1655 39.1141 37.1976L39.0412 37.4053C38.9728 37.3835 38.9078 37.3726 38.8459 37.3726C38.7831 37.3726 38.7373 37.3919 38.7088 37.4304C38.6801 37.4688 38.6658 37.5265 38.6658 37.6035V37.6874H38.9835V37.8946H38.9832ZM39.4825 38.9769H39.2058V37.1621H39.4825V38.9769Z" fill="#EE2F43"/>
<path d="M40.1049 37.3453C40.1049 37.2962 40.1185 37.2586 40.1455 37.2321C40.1725 37.2056 40.2113 37.1925 40.2614 37.1925C40.3101 37.1925 40.3481 37.2056 40.3751 37.2321C40.4021 37.2586 40.4156 37.2962 40.4156 37.3453C40.4156 37.3919 40.4021 37.4287 40.3751 37.4554C40.3481 37.4822 40.3101 37.4956 40.2614 37.4956C40.2113 37.4956 40.1725 37.4822 40.1455 37.4554C40.1185 37.4287 40.1049 37.3919 40.1049 37.3453ZM40.3979 38.9769H40.1213V37.6871H40.3979V38.9769Z" fill="#EE2F43"/>
<path d="M42.1823 38.9769H41.9046V38.184C41.9046 38.0844 41.8843 38.0103 41.8441 37.9612C41.8038 37.9121 41.7394 37.8879 41.6516 37.8879C41.5345 37.8879 41.4493 37.9222 41.3949 37.9905C41.3409 38.0588 41.3136 38.1736 41.3136 38.3345V38.9772H41.037V37.6874H41.2537L41.2925 37.8566H41.3066C41.3457 37.7953 41.4014 37.7479 41.4737 37.7145C41.5461 37.681 41.626 37.6643 41.7138 37.6643C42.0262 37.6643 42.1823 37.8218 42.1823 38.1366V38.9769Z" fill="#EE2F43"/>
<path d="M43.3795 39C43.1771 39 43.0187 38.9415 42.9045 38.8244C42.7902 38.7073 42.7331 38.5461 42.7331 38.3409C42.7331 38.1301 42.786 37.9645 42.8921 37.8441C42.9979 37.7236 43.1437 37.6634 43.3288 37.6634C43.5008 37.6634 43.6364 37.715 43.736 37.8184C43.8357 37.9219 43.8855 38.0641 43.8855 38.2453V38.3933H43.0179C43.0218 38.5185 43.0559 38.6147 43.1203 38.6819C43.1847 38.7491 43.2754 38.7828 43.3921 38.7828C43.469 38.7828 43.5407 38.7756 43.6069 38.7613C43.6733 38.7468 43.7445 38.7231 43.8205 38.6897V38.9125C43.7529 38.9442 43.6845 38.9668 43.6156 38.9802C43.5469 38.9936 43.4681 39 43.3795 39ZM43.3288 37.8711C43.241 37.8711 43.1704 37.8987 43.1175 37.9539C43.0646 38.0091 43.0328 38.0897 43.0226 38.1954H43.6136C43.6119 38.0889 43.586 38.0083 43.5359 37.9534C43.4859 37.8987 43.4166 37.8711 43.3288 37.8711Z" fill="#EE2F43"/>
</g>
<defs>
<linearGradient id="paint0_linear_3_2448" x1="4.45869" y1="6.34665" x2="29.702" y2="25.4788" gradientUnits="userSpaceOnUse">
<stop offset="0.1836" stop-color="#EE2F43"/>
<stop offset="0.7404" stop-color="#2D224A"/>
</linearGradient>
<linearGradient id="paint1_linear_3_2448" x1="21.7206" y1="12.8029" x2="27.055" y2="12.8029" gradientUnits="userSpaceOnUse">
<stop stop-color="#EE2F43"/>
<stop offset="0.2509" stop-color="#E72E43"/>
<stop offset="0.4556" stop-color="#D82C44"/>
<stop offset="0.644" stop-color="#C42945"/>
<stop offset="0.822" stop-color="#A92544"/>
<stop offset="0.9923" stop-color="#891F43"/>
<stop offset="1" stop-color="#881F43"/>
</linearGradient>
<linearGradient id="paint2_linear_3_2448" x1="25.1591" y1="19.0297" x2="21.2472" y2="25.0256" gradientUnits="userSpaceOnUse">
<stop stop-color="#EE2F43"/>
<stop offset="0.2509" stop-color="#E72E43"/>
<stop offset="0.4556" stop-color="#D82C44"/>
<stop offset="0.644" stop-color="#C42945"/>
<stop offset="0.822" stop-color="#A92544"/>
<stop offset="0.9923" stop-color="#891F43"/>
<stop offset="1" stop-color="#881F43"/>
</linearGradient>
<linearGradient id="paint3_linear_3_2448" x1="19.3615" y1="9.17672" x2="20.3342" y2="22.0483" gradientUnits="userSpaceOnUse">
<stop stop-color="#00A86C"/>
<stop offset="1" stop-color="#EE2F43"/>
</linearGradient>
<linearGradient id="paint4_linear_3_2448" x1="30.7865" y1="7.09766" x2="25.3735" y2="23.3432" gradientUnits="userSpaceOnUse">
<stop stop-color="#00A86C"/>
<stop offset="1" stop-color="#09432D"/>
</linearGradient>
<clipPath id="clip0_3_2448">
<rect width="44" height="39" fill="white"/>
</clipPath>
</defs>
</svg>
