<svg width="101" height="24" viewBox="0 0 101 24" fill="none" xmlns="http://www.w3.org/2000/svg">
<path d="M37.384 4.4V15.38H42.64V17H35.584V4.4H37.384ZM48.274 17.18C45.664 17.18 43.828 15.254 43.828 12.5C43.828 9.746 45.664 7.82 48.274 7.82C50.884 7.82 52.702 9.746 52.702 12.5C52.702 15.254 50.884 17.18 48.274 17.18ZM48.274 15.758C49.858 15.758 50.902 14.462 50.902 12.5C50.902 10.538 49.858 9.242 48.274 9.242C46.69 9.242 45.628 10.538 45.628 12.5C45.628 14.462 46.69 15.758 48.274 15.758ZM61.2153 9.188V8H62.9073V16.244C62.9073 19.034 61.4313 20.996 58.2633 20.996C57.1833 20.996 56.0133 20.762 55.0593 20.33V18.746C55.7793 19.052 56.8953 19.394 58.0293 19.394C59.5593 19.394 61.2153 18.782 61.2153 16.604V15.83H61.1613C60.4773 16.694 59.5053 17.18 58.3353 17.18C56.0313 17.18 54.3573 15.29 54.3573 12.464C54.3573 9.674 56.0313 7.82 58.3173 7.82C59.5053 7.82 60.4953 8.324 61.1793 9.188H61.2153ZM58.7673 15.74C60.3333 15.74 61.3773 14.426 61.3773 12.464C61.3773 10.538 60.3333 9.26 58.7493 9.26C57.1653 9.26 56.1213 10.538 56.1213 12.464C56.1213 14.426 57.1833 15.74 58.7673 15.74ZM76.2813 17.216C72.6453 17.216 70.2333 14.624 70.2333 10.718C70.2333 6.812 72.6453 4.22 76.2813 4.22C79.9173 4.22 82.3293 6.812 82.3293 10.718C82.3293 14.624 79.9173 17.216 76.2813 17.216ZM76.2813 15.632C78.9093 15.632 80.4753 13.814 80.4753 10.718C80.4753 7.604 78.9093 5.786 76.2813 5.804C73.6533 5.822 72.0873 7.64 72.0873 10.718C72.0873 13.814 73.6533 15.632 76.2813 15.632ZM91.1551 8H92.8471V17H91.2091V15.686H91.1551C90.5431 16.676 89.5351 17.18 88.2391 17.18C85.9891 17.18 84.7291 15.686 84.7291 12.86V8H86.4211V13.004C86.4211 14.84 87.1951 15.758 88.5811 15.758C90.0031 15.758 91.0651 14.768 91.1551 12.68V8ZM97.605 8H99.855V9.476H97.605V14.516C97.605 15.29 97.749 15.632 98.541 15.668C98.901 15.686 99.279 15.632 99.585 15.578V16.946C99.207 17.054 98.775 17.108 98.325 17.108C96.597 17.108 95.913 16.208 95.913 14.498V9.476H94.419V8H95.913V5.93L97.605 5.336V8Z" fill="#F42A41"/>
<path d="M5 21C4.45 21 3.97917 20.8042 3.5875 20.4125C3.19583 20.0208 3 19.55 3 19V5C3 4.45 3.19583 3.97917 3.5875 3.5875C3.97917 3.19583 4.45 3 5 3H12V5H5V19H12V21H5ZM16 17L14.625 15.55L17.175 13H9V11H17.175L14.625 8.45L16 7L21 12L16 17Z" fill="#F42A41"/>
</svg>
