<svg width="16" height="16" viewBox="0 0 16 16" fill="none" xmlns="http://www.w3.org/2000/svg">
<g clip-path="url(#clip0_3_1750)">
<path d="M14.6663 14.6654L13.333 13.332M7.66634 13.9987C8.49805 13.9987 9.32161 13.8349 10.09 13.5166C10.8584 13.1983 11.5566 12.7318 12.1447 12.1437C12.7328 11.5556 13.1993 10.8574 13.5176 10.089C13.8359 9.32063 13.9997 8.49707 13.9997 7.66536C13.9997 6.83366 13.8359 6.0101 13.5176 5.2417C13.1993 4.47331 12.7328 3.77513 12.1447 3.18702C11.5566 2.59892 10.8584 2.13241 10.09 1.81413C9.32161 1.49585 8.49805 1.33203 7.66634 1.33203C5.98664 1.33203 4.37573 1.99929 3.188 3.18702C2.00027 4.37475 1.33301 5.98566 1.33301 7.66536C1.33301 9.34507 2.00027 10.956 3.188 12.1437C4.37573 13.3314 5.98664 13.9987 7.66634 13.9987V13.9987Z" stroke="#636363" stroke-width="1.25" stroke-linecap="round" stroke-linejoin="round"/>
</g>
<defs>
<clipPath id="clip0_3_1750">
<rect width="16" height="16" fill="white"/>
</clipPath>
</defs>
</svg>
