<svg width="28" height="28" viewBox="0 0 28 28" fill="none" xmlns="http://www.w3.org/2000/svg">
<path d="M17.7123 17.7123C17.2248 18.1998 16.6461 18.5866 16.0091 18.8504C15.3721 19.1142 14.6894 19.25 14 19.25C13.3106 19.25 12.6279 19.1142 11.9909 18.8504C11.3539 18.5866 10.7752 18.1998 10.2877 17.7123M24.5 14C24.5 15.3789 24.2284 16.7443 23.7007 18.0182C23.1731 19.2921 22.3996 20.4496 21.4246 21.4246C20.4496 22.3996 19.2921 23.1731 18.0182 23.7007C16.7443 24.2284 15.3789 24.5 14 24.5C12.6211 24.5 11.2557 24.2284 9.98182 23.7007C8.70791 23.1731 7.55039 22.3996 6.57538 21.4246C5.60036 20.4496 4.82694 19.2921 4.29926 18.0182C3.77159 16.7443 3.5 15.3789 3.5 14C3.5 11.2152 4.60625 8.54451 6.57538 6.57538C8.54451 4.60625 11.2152 3.5 14 3.5C16.7848 3.5 19.4555 4.60625 21.4246 6.57538C23.3938 8.54451 24.5 11.2152 24.5 14ZM11.375 11.375C11.375 11.858 11.179 12.25 10.9375 12.25C10.696 12.25 10.5 11.858 10.5 11.375C10.5 10.892 10.696 10.5 10.9375 10.5C11.179 10.5 11.375 10.892 11.375 11.375ZM10.9375 11.375H10.9468V11.3925H10.9375V11.375ZM17.5 11.375C17.5 11.858 17.304 12.25 17.0625 12.25C16.821 12.25 16.625 11.858 16.625 11.375C16.625 10.892 16.821 10.5 17.0625 10.5C17.304 10.5 17.5 10.892 17.5 11.375ZM17.0625 11.375H17.0718V11.3925H17.0625V11.375Z" stroke="black" stroke-opacity="0.7" stroke-width="1.5" stroke-linecap="round" stroke-linejoin="round"/>
</svg>
