<svg width="201" height="51" viewBox="0 0 201 51" fill="none" xmlns="http://www.w3.org/2000/svg">
<path d="M86.4748 34.3999L86.2001 34.3625C83.3965 33.1574 80.4681 31.7775 77.983 29.8731C77.9393 29.8356 77.8956 29.8044 77.8519 29.7669C77.8144 29.7357 77.777 29.7107 77.7395 29.6795C75.8413 28.1934 74.1305 26.545 72.6382 24.7655L72.607 24.728L72.4634 24.5594C72.1574 24.1848 71.8577 23.8039 71.5705 23.4168C71.508 23.3356 71.4518 23.2607 71.3956 23.1795C70.6776 22.193 70.022 21.1565 69.4538 20.1137L69.3476 19.9139C65.7761 13.183 66.0321 6.61431 69.997 2.75555C71.9826 0.826164 74.2304 -0.0916976 76.6718 0.00820571C81.4359 0.214256 85.4258 4.22912 86.3374 5.21567C87.249 4.22912 91.2452 0.214256 96.0031 0.00820571C98.4444 -0.0979416 100.686 0.826164 102.665 2.75555C103.121 3.19887 103.527 3.67341 103.858 4.15419C103.902 4.21039 103.952 4.28532 104.002 4.36024L104.052 4.44141C104.551 5.19693 104.944 6.02738 105.232 6.91402C105.25 6.97022 105.269 7.02641 105.282 7.08261L105.294 7.12632C105.307 7.17627 105.332 7.23871 105.344 7.30739C105.856 9.09316 105.95 11.0787 105.619 13.2142C105.619 13.3328 105.594 13.439 105.569 13.5451C105.5 13.9197 105.431 14.2819 105.344 14.644C105.325 14.719 105.307 14.7939 105.288 14.8626L105.282 14.8876C103.296 22.9173 96.2778 30.204 86.506 34.3874L86.4748 34.3999ZM73.0503 24.3409L73.069 24.3659C74.5363 26.1204 76.2285 27.7564 78.0954 29.2174C78.1391 29.2487 78.1766 29.2799 78.2203 29.3173C78.2577 29.3486 78.2952 29.3798 78.3389 29.411C80.7553 31.2655 83.6275 32.6204 86.3811 33.8067C95.7908 29.7607 102.821 22.4677 104.745 14.7689L104.751 14.7315C104.77 14.6503 104.788 14.5754 104.807 14.4942C104.888 14.1445 104.957 13.7949 105.019 13.4514L105.026 13.4077C105.044 13.3141 105.063 13.2392 105.063 13.1767L105.069 13.133C105.388 11.0787 105.307 9.16809 104.813 7.45725C104.795 7.39481 104.776 7.33861 104.763 7.28242C104.738 7.195 104.72 7.14505 104.707 7.0951C104.432 6.25841 104.058 5.47791 103.596 4.7661L103.527 4.67244C103.49 4.61625 103.452 4.55381 103.402 4.49761C103.077 4.02307 102.697 3.58599 102.272 3.16765C100.405 1.3569 98.3133 0.482746 96.0343 0.58265C90.9704 0.801188 86.6371 5.7464 86.5934 5.79635L86.506 5.89626H86.1813L86.0939 5.79635C86.0502 5.7464 81.7169 0.801188 76.6468 0.58265C74.374 0.482746 72.2698 1.35066 70.4028 3.16765C66.6253 6.83909 66.413 13.1392 69.8471 19.6142L69.9658 19.8328C70.5152 20.8505 71.1584 21.8683 71.8764 22.8486C71.9326 22.936 71.9763 22.9922 72.0263 23.0609C72.3135 23.4418 72.607 23.8227 72.9067 24.191L73.0503 24.3409Z" fill="white"/>
<path d="M105.03 14.1761C105.03 14.2697 105.005 14.3696 104.98 14.4758C104.917 14.8005 104.849 15.1314 104.767 15.4561C104.749 15.531 104.73 15.6059 104.711 15.6809C102.95 22.3744 96.5754 29.8047 86.3728 33.9195L86.2292 33.857C83.2196 32.6332 80.6158 31.1159 78.2931 29.4363C78.2057 29.3739 78.137 29.3177 78.0496 29.2552C76.1389 27.8441 74.4718 26.3143 73.0607 24.7221C73.0607 24.7221 73.0607 24.7221 73.0544 24.7159C73.0045 24.6597 72.9545 24.6035 72.9046 24.5473C72.6048 24.1976 72.3114 23.848 72.0304 23.4983C71.968 23.4234 71.9243 23.3672 71.8743 23.2922C71.1562 22.3619 70.5256 21.4191 69.9761 20.47C69.9387 20.4075 69.9075 20.3451 69.87 20.2889C69.8637 20.2827 69.8637 20.2764 69.8575 20.2702C66.5295 14.3571 66.5482 8.29426 70.4569 4.71023C77.8435 -2.04573 86.2978 7.1641 86.2978 7.1641H86.3603C86.3603 7.1641 94.8146 -2.05198 102.189 4.71023C102.613 5.09735 103 5.52194 103.325 5.96526C103.4 6.05268 103.456 6.14634 103.519 6.23376C103.999 6.92059 104.374 7.66362 104.643 8.4566C104.661 8.50656 104.674 8.55651 104.693 8.60646C104.699 8.61895 104.699 8.62519 104.705 8.63768C104.724 8.69387 104.742 8.75007 104.761 8.80627C105.267 10.4422 105.348 12.2654 105.03 14.1761Z" fill="#EE2D42"/>
<path d="M85.2205 13.3197L85.695 13.3447L85.7887 13.6132L85.414 13.6382L85.208 13.3572L85.2205 13.3197Z" fill="#D51C56"/>
<path d="M85.7361 12.5465L85.6924 13.1709L85.9546 13.1272L86.1419 12.9087L85.7361 12.5465Z" fill="#D51C56"/>
<path d="M86.531 12.8772L86.1064 13.2456L86.1876 13.5266L86.4624 13.4204L86.531 12.8772Z" fill="#D51C56"/>
<path d="M105.032 14.1758C105.032 14.2695 105.007 14.3694 104.982 14.4755C104.92 14.8002 104.851 15.1311 104.77 15.4558C104.751 15.5308 104.732 15.6057 104.714 15.6806L104.645 15.6931C104.62 15.6993 104.595 15.7056 104.57 15.7118C104.545 15.7181 104.52 15.7243 104.495 15.7306C104.433 15.743 104.364 15.7618 104.295 15.7743C103.758 15.8867 103.021 16.049 102.703 16.0927H102.684C102.441 16.1302 102.016 16.1926 101.467 16.1926C101.204 16.1926 100.917 16.1801 100.605 16.1364C100.499 16.5048 99.862 16.8295 98.5383 17.2041C98.3572 17.2478 98.1949 17.2666 98.0513 17.2666C97.1834 17.2666 96.8212 16.6047 96.7275 16.3924C96.6651 16.3862 96.6027 16.3862 96.5402 16.3799L96.4591 16.3737C95.8971 16.3237 95.3976 16.0865 94.9792 15.793C94.9043 15.9616 94.7982 16.0802 94.6545 16.1614C94.5297 16.2301 94.3861 16.2613 94.2424 16.2613C93.8054 16.2613 93.362 15.9928 93.3371 15.9803L93.3246 15.9678C92.9 15.6119 92.5691 15.2435 92.3068 14.8876C92.2694 14.9001 92.2319 14.9126 92.2007 14.9188C91.6575 15.0625 90.9394 15.2061 90.2775 15.2061C90.0715 15.2061 89.8779 15.1936 89.6906 15.1624H89.6844C89.1536 15.0437 88.8102 14.8439 88.6354 14.5567C88.6229 14.538 88.6104 14.513 88.5979 14.4943C88.5917 14.4818 88.5854 14.4755 88.5854 14.463C88.5729 14.4443 88.5667 14.4193 88.5605 14.3944C88.5542 14.3819 88.548 14.3694 88.548 14.3569C88.548 14.3506 88.5417 14.3382 88.5417 14.3319C88.5355 14.3194 88.5355 14.3132 88.5355 14.3007C88.5292 14.2695 88.523 14.2383 88.5167 14.207C88.5167 14.1945 88.5105 14.1821 88.5105 14.1696C88.5105 14.1508 88.5043 14.1321 88.5043 14.1134C88.4918 13.8636 88.5542 13.6139 88.6042 13.3953L88.6104 13.3579L88.6166 13.3204C88.6229 13.3079 88.6229 13.2892 88.6291 13.2767C88.6291 13.2704 88.6354 13.2642 88.6354 13.258C88.6354 13.2517 88.6416 13.2455 88.6416 13.2392C88.6479 13.233 88.6479 13.2267 88.6541 13.2205C88.6604 13.208 88.6666 13.2018 88.6728 13.1893L88.6791 13.1768C88.6853 13.1705 88.6916 13.1643 88.6978 13.1518C88.804 13.0207 88.9913 12.9083 89.241 12.8021C89.2598 12.7959 89.2785 12.7897 89.2972 12.7772C89.316 12.7709 89.3409 12.7584 89.3597 12.7522C89.3784 12.746 89.3909 12.7397 89.4096 12.7335C89.4409 12.721 89.4783 12.7085 89.5158 12.696C89.7468 12.6148 90.0028 12.5461 90.29 12.4775C90.3213 12.4712 90.3587 12.4587 90.3899 12.4525C90.4274 12.44 90.4711 12.4338 90.5086 12.4275C90.5523 12.415 90.6022 12.4088 90.6522 12.3963C90.7146 12.3838 90.7771 12.3713 90.8395 12.3588C90.8894 12.3463 90.9456 12.3401 90.9956 12.3276C91.1142 12.3026 91.2329 12.2839 91.3515 12.2589C91.5014 11.5971 91.8885 11.0538 92.5066 10.6355C92.1695 10.7916 91.8323 10.9852 91.4389 11.2162C91.0955 11.416 90.7271 11.6283 90.2713 11.8718C90.1652 11.928 90.059 11.9842 89.9404 12.0404C89.8779 12.0716 89.8155 12.1028 89.7468 12.134C89.7218 12.1465 89.6968 12.159 89.6781 12.1715C89.2348 12.39 88.8414 12.5337 88.498 12.6148H88.4918C88.2982 12.6585 88.1171 12.6835 87.9548 12.6835C87.9236 12.6835 87.8923 12.6835 87.8674 12.6835C87.5052 12.6648 87.2305 12.5212 87.0494 12.2589L87.0369 12.2402C86.8246 11.7844 87.4615 11.3411 88.0297 10.9539C88.1109 10.8977 88.1858 10.8415 88.2607 10.7916C88.3856 10.7042 88.498 10.598 88.5979 10.4794C89.8717 8.99333 92.1133 7.83196 92.8188 7.61342L92.8313 7.60717H92.8438C93.9864 7.51351 95.0916 7.35117 96.2592 7.17634C97.1084 7.05146 97.9826 6.92034 98.8817 6.82043H98.8942C98.9192 6.82043 98.9379 6.82043 98.9629 6.82043C101.741 6.82043 103.821 7.91313 104.651 8.43138C104.67 8.48133 104.682 8.53128 104.701 8.58123C104.682 8.58748 104.676 8.59372 104.714 8.61245C104.732 8.66865 104.751 8.72484 104.77 8.78104C105.269 10.4419 105.35 12.2652 105.032 14.1758Z" fill="#FFFDFD"/>
<path d="M94.2343 17.853C94.0095 18.2776 93.4288 18.5773 92.5172 18.7522C91.4869 18.9457 90.3256 19.1767 89.3265 19.3703C88.6147 19.5326 88.0902 19.6388 88.0777 19.6388L88.0715 19.6138C87.6719 19.695 87.3472 19.7637 87.1474 19.8074C86.985 19.8448 86.7041 19.8761 86.3482 19.9135C84.9807 20.0696 82.4457 20.3568 81.4966 21.3871C81.4342 21.487 81.3717 21.5869 81.3093 21.6806C80.7785 22.511 80.5163 22.9668 80.9034 23.4039C81.0158 23.5288 81.2968 23.6974 81.6215 23.8972C82.7329 24.5653 84.5936 25.6829 84.2502 27.7185C84.2627 27.8371 84.3126 28.3616 84.0129 28.5052C83.963 28.5302 83.913 28.5427 83.8506 28.5427C83.5883 28.5427 83.2387 28.2992 82.7579 27.7996L82.5955 27.6623C81.2344 26.5134 79.9419 25.4332 77.0759 25.0523C76.8698 25.0273 76.6513 25.0024 76.414 24.9774C75.4962 24.8837 74.4534 24.7713 73.5793 24.3467C73.5356 24.328 73.4981 24.3093 73.4606 24.2843L73.0548 24.7089C73.0048 24.6527 72.9549 24.5965 72.9049 24.5403C72.6052 24.1906 72.3117 23.841 72.0308 23.4913C71.9683 23.4164 71.9246 23.3602 71.8747 23.2853C71.1566 22.3549 70.526 21.4121 69.9765 20.463C69.939 20.4006 69.9078 20.3381 69.8704 20.2819C70.3824 19.7949 70.8631 19.3391 71.1504 19.0643C71.1816 19.0331 71.2128 19.0019 71.244 18.9769C72.1681 18.0965 74.1849 17.4971 76.3204 16.8602L76.7262 16.7416C77.463 16.5231 78.0812 16.2858 78.6181 16.061C78.7805 15.9112 80.2541 14.5 81.3343 13.22C82.2709 12.1148 83.3885 10.7724 83.7694 10.3166C83.8318 10.2416 83.8756 10.1917 83.8943 10.173C83.9068 10.148 83.938 10.0793 83.9817 9.99188C84.0691 9.8233 84.2002 9.56105 84.3563 9.30505C84.8559 8.46836 85.1056 8.40592 85.2492 8.42465C85.4865 8.46211 85.5427 8.79929 85.5614 8.93041C85.705 9.23636 85.8112 9.57978 85.7737 10.0106C85.3991 10.7849 85.0057 11.5841 84.6685 12.2647C83.938 13.2637 83.0513 14.3314 82.6268 14.8247C83.5696 14.55 84.6873 14.1628 85.4802 13.8319C85.5864 13.7882 85.6863 13.7445 85.78 13.7008H85.7862C85.8362 13.6821 85.8799 13.6571 85.9298 13.6384C85.9673 13.6196 86.011 13.6009 86.0484 13.5822C86.0922 13.5634 86.1359 13.5447 86.1796 13.5197C86.2483 13.4885 86.3169 13.4573 86.3919 13.4198C86.4106 13.4073 86.4356 13.4011 86.4543 13.3886C86.4793 13.3761 86.5043 13.3636 86.5292 13.3511C86.9975 13.1263 87.4658 12.8891 87.8654 12.6893C88.0777 12.5831 88.2651 12.4832 88.4211 12.402C88.6896 12.2647 88.852 12.1773 88.8582 12.171L88.8707 12.1648C88.9831 12.1211 89.3265 11.9899 89.6887 11.9213C89.8947 11.8776 90.1008 11.8588 90.2756 11.8776C90.4067 11.8963 90.5191 11.9338 90.5878 12.0149C90.6752 12.1086 90.6939 12.2397 90.6565 12.402C90.644 12.4395 90.6315 12.4832 90.619 12.5269C90.6003 12.5706 90.5816 12.6143 90.5628 12.6581C90.5628 12.6643 90.5566 12.6705 90.5503 12.6768L90.5441 12.683C90.4317 12.8516 90.2444 13.0577 89.9884 13.2949C89.7511 13.5072 89.4576 13.7445 89.108 13.988C88.9956 14.0692 88.877 14.1504 88.7521 14.2315C88.7209 14.2565 88.6834 14.2752 88.6522 14.3002C88.621 14.3189 88.5835 14.3439 88.5523 14.3627C88.059 14.6811 87.4846 15.012 86.8539 15.3305C86.6416 15.4429 86.4168 15.549 86.1921 15.6551C85.6051 15.9299 84.9745 16.1984 84.3126 16.4419C85.4615 16.5543 88.3337 16.8353 90.6939 17.0163C91.131 16.9164 91.5619 16.8228 91.9427 16.7354C93.0667 16.4794 93.4725 16.3919 93.5599 16.3919C93.6036 16.3919 93.7472 16.4107 93.791 16.6292C93.8159 16.7541 93.7972 16.9539 93.716 17.1724C93.8222 17.1724 93.9158 17.1662 93.9908 17.1662C94.0657 17.1599 94.1281 17.1537 94.1718 17.1475C94.228 17.135 94.278 17.1662 94.303 17.2161C94.303 17.2411 94.4153 17.5221 94.2343 17.853Z" fill="#FFFDFD"/>
<path d="M83.7822 10.3231C83.7822 10.3231 84.8624 10.8101 85.4806 9.30533C85.4806 9.30533 85.5867 8.37498 85.1934 8.53108C84.8 8.68718 83.7822 10.3231 83.7822 10.3231Z" fill="#F0BCD3"/>
<path d="M93.0986 17.9912C93.0986 17.9912 94.0102 17.9725 94.1663 17.6478C94.3224 17.3231 93.9915 17.2981 93.9915 17.2981C93.9915 17.2981 93.7043 17.2919 93.6793 17.2981C93.6481 17.3044 93.0986 17.9912 93.0986 17.9912Z" fill="#F0BCD3"/>
<path d="M94.297 17.2351C94.2783 17.1852 94.2221 17.1539 94.1659 17.1664C94.1222 17.1789 94.0598 17.1852 93.9848 17.1852C93.9099 17.1914 93.8162 17.1914 93.7101 17.1914C93.7913 16.9666 93.8038 16.7731 93.785 16.6482C93.7413 16.4296 93.5977 16.4109 93.554 16.4109C93.4666 16.4109 93.0607 16.4983 91.9368 16.7543C91.5559 16.8417 91.1251 16.9354 90.688 17.0353C88.3216 16.8542 85.4493 16.5733 84.3067 16.4609C84.9686 16.2173 85.5992 15.9489 86.1861 15.6741C86.4109 15.568 86.6357 15.4556 86.848 15.3494C87.4786 15.0248 88.0468 14.7001 88.5463 14.3816C88.5776 14.3629 88.615 14.3379 88.6462 14.3192C88.6837 14.2942 88.7149 14.2755 88.7462 14.2505C88.871 14.1693 88.9897 14.0882 89.1021 14.007C89.1458 13.9758 89.1895 13.9445 89.2269 13.9133C89.2582 13.8884 89.2894 13.8696 89.3206 13.8446C89.3331 13.8322 89.3456 13.8259 89.3643 13.8134C89.3768 13.8009 89.3893 13.7947 89.408 13.7822C89.4517 13.751 89.4892 13.7198 89.5329 13.6885C89.5516 13.6761 89.5704 13.6573 89.5891 13.6448C89.6078 13.6324 89.6266 13.6136 89.6453 13.6011C89.664 13.5886 89.6827 13.5762 89.6952 13.5574C89.714 13.5449 89.7327 13.5262 89.7452 13.5137C89.7639 13.5012 89.7764 13.4825 89.7951 13.47C89.8139 13.4575 89.8264 13.445 89.8451 13.4263C89.8701 13.4076 89.895 13.3826 89.9138 13.3639C89.9387 13.3451 89.9575 13.3264 89.9762 13.3077C89.9762 13.3077 89.9762 13.3077 89.9825 13.3014C90.2385 13.0704 90.432 12.8643 90.5382 12.6895L90.5444 12.6833C90.5507 12.677 90.5507 12.6708 90.5569 12.6645C90.5819 12.6208 90.6006 12.5771 90.6131 12.5334C90.6318 12.4897 90.6443 12.446 90.6506 12.4085C90.6943 12.2462 90.6693 12.1151 90.5819 12.0214C90.5132 11.9402 90.4008 11.8965 90.2697 11.884C90.0949 11.8653 89.8888 11.884 89.6827 11.9278C89.3268 12.0027 88.9834 12.1276 88.8648 12.1713L88.8523 12.1775C88.8461 12.1775 88.6775 12.2712 88.4152 12.4085C88.2591 12.4897 88.0718 12.5834 87.8595 12.6958C87.8345 12.7082 87.8096 12.7207 87.7846 12.7332C87.7097 12.7707 87.6285 12.8144 87.5473 12.8519C87.5099 12.8706 87.4661 12.8956 87.4224 12.9143C87.3413 12.958 87.2538 12.9955 87.1727 13.0392C86.9604 13.1453 86.7418 13.2515 86.5233 13.3576C86.4983 13.3701 86.4734 13.3826 86.4484 13.3951C86.4296 13.4076 86.4047 13.4138 86.3859 13.4263C86.3173 13.4575 86.2423 13.495 86.1736 13.5262C86.1299 13.5449 86.0862 13.5637 86.0425 13.5886C86.0051 13.6074 85.9613 13.6261 85.9239 13.6448C85.8739 13.6636 85.8302 13.6885 85.7803 13.7073H85.774C85.6804 13.751 85.5805 13.7947 85.4743 13.8384C84.6751 14.1693 83.5574 14.5565 82.6208 14.8312C83.0454 14.3317 83.9383 13.2702 84.6626 12.2712C84.7875 12.0963 84.9061 11.9278 85.0185 11.7654C85.518 11.0349 85.7241 10.4729 85.7615 10.0171C85.799 9.58627 85.6929 9.24285 85.5492 8.93689C85.5305 8.79953 85.4806 8.4686 85.237 8.43113C85.0934 8.40616 84.8437 8.47484 84.3442 9.31153C84.1943 9.56753 84.0569 9.82978 83.9695 9.99837C83.9258 10.0858 83.8946 10.1482 83.8821 10.1794C83.8634 10.1982 83.8197 10.2481 83.7572 10.3231C83.3826 10.7789 82.2587 12.1151 81.3221 13.2265C80.2419 14.5003 78.7683 15.9176 78.606 16.0675C78.0752 16.286 77.4508 16.5233 76.7141 16.7481L76.3082 16.8667C74.1728 17.5036 72.1622 18.103 71.2319 18.9834C71.2006 19.0084 71.1694 19.0396 71.1382 19.0708C70.801 19.3893 70.3265 19.8264 69.8457 20.2697C69.8519 20.2759 69.8519 20.2822 69.8582 20.2884C69.8957 20.3508 69.9269 20.4133 69.9643 20.4695C70.5013 19.9762 71.0383 19.4829 71.388 19.1458C72.2746 18.3028 74.2664 17.7097 76.3706 17.0853L76.7765 16.9666C77.9254 16.6232 78.7933 16.2423 79.4926 15.9364C80.1607 15.6429 80.6415 15.4306 81.0099 15.4181C81.7779 15.3931 84.288 14.6002 85.6804 14.0007C85.7428 13.9758 85.799 13.9508 85.849 13.9258C86.0238 13.8446 86.2049 13.7635 86.3922 13.6761C87.1539 13.3139 87.9719 12.9018 88.4652 12.6396H88.4714C88.4777 12.6396 88.4777 12.6333 88.4839 12.6333C88.7337 12.5022 88.9022 12.4148 88.9335 12.396C89.1707 12.3024 89.4642 12.215 89.7265 12.1588C89.9762 12.1088 90.2072 12.0901 90.3259 12.14C90.3259 12.14 90.3321 12.14 90.3321 12.1463C90.3508 12.1525 90.3696 12.165 90.3821 12.1775L90.3883 12.1838C90.3883 12.1838 90.3883 12.1838 90.3883 12.19C90.432 12.2399 90.4195 12.3461 90.3633 12.4835C90.3508 12.5147 90.3321 12.5521 90.3134 12.5896C90.3071 12.6021 90.3009 12.6083 90.2947 12.6208C90.2634 12.6645 90.226 12.7145 90.1823 12.7644C90.0324 12.9393 89.8201 13.1391 89.5516 13.3639C89.5142 13.3951 89.4767 13.4201 89.4392 13.4513C89.3518 13.52 89.2582 13.5949 89.1582 13.6636C89.0146 13.7697 88.8585 13.8759 88.6962 13.9883C88.6587 14.0132 88.6213 14.0382 88.5776 14.0694C88.5401 14.0944 88.5026 14.1194 88.4652 14.1444C87.9719 14.4628 87.4037 14.7937 86.7731 15.1184C86.5733 15.2246 86.3672 15.3245 86.1487 15.4244C85.3994 15.7803 84.5814 16.1237 83.7073 16.4234L83.5762 16.4671C83.4887 16.4983 83.5075 16.6232 83.5949 16.6295L83.7323 16.6419C83.957 16.6669 87.0853 16.9854 89.8763 17.2101C88.8523 17.4287 87.9344 17.6098 87.7097 17.591C87.1602 17.5473 84.7001 17.7409 84.0819 17.7908C84.007 17.7971 83.9508 17.8595 83.957 17.9407C83.9633 18.0156 84.032 18.0718 84.1069 18.0656C84.7126 18.0156 87.1664 17.822 87.6909 17.8658C88.0031 17.8907 89.2394 17.6347 90.8254 17.2851C90.8441 17.2851 90.8629 17.2851 90.8816 17.2913C91.8119 17.36 92.6486 17.4099 93.2605 17.4287C93.2543 17.4349 93.2543 17.4412 93.248 17.4412C93.067 17.7159 92.7298 18.0531 92.1241 18.2903C90.6443 18.8585 88.0156 19.383 87.9906 19.3893L87.9969 19.4143C87.591 19.4954 87.2663 19.5641 87.0665 19.6078C86.9167 19.639 86.6419 19.6703 86.2923 19.714C84.8936 19.8763 82.2899 20.1698 81.2909 21.2687L81.2784 21.2874C81.2159 21.3936 81.1473 21.4935 81.0848 21.5872C80.6477 22.2677 80.2918 22.8235 80.5353 23.3417L79.4801 22.7735C79.4239 22.7423 79.3552 22.7673 79.324 22.8235C79.3115 22.8422 79.3115 22.8609 79.3115 22.8797C79.3115 22.9171 79.3365 22.9608 79.374 22.9796L81.166 23.9349C81.2597 23.9973 81.3658 24.0598 81.4782 24.1222C82.0839 24.4844 82.9268 24.9901 83.4763 25.7144C83.8884 26.2576 84.1381 26.9133 83.9945 27.7312V27.7499V27.7687C84.0257 27.9622 84.007 28.2807 83.8884 28.3369C83.8322 28.3619 83.5886 28.3993 82.8956 27.675L82.7207 27.5252C82.5459 27.3753 82.3711 27.2317 82.19 27.0881C80.9662 26.089 79.6425 25.2024 77.0824 24.8652C76.8764 24.8403 76.6516 24.8153 76.4143 24.7903C75.5152 24.6966 74.4912 24.5905 73.6545 24.1784C72.7242 23.7226 72.2122 22.9796 72.0873 21.8994C72.081 21.8369 72.0248 21.7932 71.9624 21.7994C71.9 21.8057 71.8563 21.8556 71.8563 21.9118C71.8563 21.9181 71.8563 21.9181 71.8563 21.9243C71.9749 22.9546 72.4245 23.7039 73.2299 24.2034L72.8803 24.578C72.9302 24.6342 72.9802 24.6904 73.0301 24.7466C73.0301 24.7466 73.0301 24.7466 73.0364 24.7528L73.4422 24.3283C73.4797 24.347 73.5234 24.372 73.5609 24.3907C74.435 24.8215 75.4777 24.9277 76.3956 25.0213C76.6329 25.0463 76.8514 25.0713 77.0575 25.0963C79.9234 25.4771 81.2097 26.5636 82.5771 27.7062L82.7395 27.8436C83.2202 28.3431 83.5699 28.5866 83.8322 28.5866C83.8884 28.5866 83.9446 28.5741 83.9945 28.5492C84.2942 28.4056 84.2443 27.8811 84.2318 27.7624C84.5689 25.7207 82.7145 24.6092 81.6031 23.9411C81.2784 23.7476 80.9974 23.579 80.885 23.4479C80.4979 23.0108 80.7601 22.555 81.2909 21.7245C81.3533 21.6309 81.4158 21.531 81.4782 21.4311C82.4273 20.4008 84.9686 20.1136 86.3297 19.9575C86.6856 19.9138 86.9666 19.8826 87.129 19.8513C87.3288 19.8076 87.6535 19.7389 88.0531 19.6578L88.0593 19.6827C88.0718 19.6827 88.5963 19.5766 89.3081 19.4143C90.3071 19.2207 91.4685 18.9897 92.4988 18.7961C93.4104 18.6213 93.9848 18.3216 94.2159 17.897C94.4157 17.5223 94.3033 17.2414 94.297 17.2351ZM81.0286 15.1871C80.6165 15.1996 80.117 15.4181 79.4239 15.7241C79.3552 15.7553 79.2866 15.7865 79.2179 15.8177C79.7736 15.2683 80.7476 14.288 81.5219 13.3763C82.5272 12.19 83.7385 10.7352 84.0257 10.3917C84.0632 10.3418 84.0882 10.3168 84.0882 10.3168L84.1007 10.3043L84.1069 10.2918C84.1069 10.2856 84.3129 9.84851 84.5627 9.43017C85.0248 8.65592 85.2058 8.65592 85.2246 8.66216C85.2558 8.6684 85.312 8.74333 85.3494 8.99309V9.01182L85.3557 9.03055C85.3931 9.11172 85.4369 9.20538 85.4806 9.32402C85.6242 9.75485 85.6679 10.4542 84.8499 11.6468C83.9196 13.0142 82.4398 14.7313 82.24 14.9561C81.7092 15.0872 81.2721 15.1746 81.0286 15.1871ZM91.6371 17.104C91.7557 17.079 91.8744 17.0478 91.993 17.0228C92.6736 16.8667 93.323 16.7231 93.5103 16.6919C93.5228 16.7481 93.5228 16.8792 93.4666 17.0603C93.4541 17.0977 93.4354 17.1415 93.4166 17.1914C92.9608 17.1789 92.3427 17.1477 91.6371 17.104ZM93.9973 17.8033C93.835 18.0406 93.4416 18.3403 92.4738 18.5276C92.3427 18.5526 92.2053 18.5776 92.0679 18.6088C92.1366 18.5838 92.1991 18.5588 92.2677 18.5339C92.6549 18.384 92.9483 18.1967 93.1731 17.9844C93.3729 17.7971 93.5165 17.6035 93.6164 17.4162C93.8225 17.4162 93.9911 17.4099 94.1097 17.4037C94.1222 17.4849 94.116 17.6098 94.0348 17.7534C94.0223 17.7721 94.0098 17.7846 93.9973 17.8033Z" fill="#4A4A4A"/>
<path d="M86.1727 15.6934C86.2601 15.6497 86.1165 14.8942 85.9667 14.5008C85.8917 14.2948 85.592 13.8015 85.592 13.8015L86.3913 13.5892C86.3913 13.5892 86.5661 13.9888 86.6972 14.5757C86.8283 15.1627 86.8471 15.3625 86.8471 15.3625L86.1727 15.6934Z" fill="#4A4A4A"/>
<path d="M90.8701 17.1792C90.8701 17.1792 91.3509 18.5155 93.1616 17.5102C93.9671 17.0606 93.6112 16.5174 93.4364 16.5361C93.2678 16.5486 90.8701 17.1792 90.8701 17.1792Z" fill="#F0BCD3"/>
<path d="M88.5102 12.6333C88.5102 12.6333 88.2354 14.0257 89.5904 13.3514C90.9391 12.677 90.4271 12.1838 90.4271 12.1838C90.4271 12.1838 89.9588 11.703 88.5102 12.6333Z" fill="#F0BCD3"/>
<path d="M104.77 8.79955C104.739 8.77458 104.701 8.7496 104.658 8.72463C103.94 8.25633 101.817 7.05125 98.9133 7.06998C98.0205 7.16988 97.1463 7.30101 96.3096 7.42588C95.142 7.60072 94.0431 7.76306 92.8942 7.85672C92.1699 8.08774 89.8783 9.28658 88.667 10.7976L88.6545 10.8164C88.5296 10.9225 88.3548 11.0411 88.1737 11.166C87.7367 11.4657 87.1373 11.8778 87.2559 12.1588C87.4932 12.496 87.9427 12.5272 88.436 12.4211C88.8169 12.3399 89.2352 12.1713 89.5974 11.9902C89.6348 11.9715 89.6661 11.959 89.7035 11.9403C90.3904 11.6031 90.8961 11.3096 91.3457 11.0474C92.0762 10.6228 92.7631 10.3605 93.5061 10.1857L93.4124 10.3418L93.3999 10.3668C93.3562 10.3793 93.3188 10.3855 93.2751 10.398C93.0066 10.4667 92.7693 10.5604 92.532 10.6665C92.1949 10.8226 91.8577 11.0162 91.4643 11.2472C91.1209 11.447 90.7525 11.6593 90.2967 11.9028C90.1905 11.959 90.0844 12.0152 89.9658 12.0714C89.9033 12.1026 89.8409 12.1338 89.7722 12.165C89.7472 12.1775 89.7222 12.19 89.7035 12.2025C89.2602 12.421 88.8668 12.5647 88.5234 12.6458H88.5172C88.3236 12.6895 88.1425 12.7145 87.9802 12.7145C87.949 12.7145 87.9177 12.7145 87.8928 12.7145C87.5306 12.6958 87.2559 12.5522 87.0748 12.2899L87.0623 12.2712C86.85 11.8154 87.4869 11.3721 88.0551 10.9849C88.1363 10.9287 88.2112 10.8725 88.2861 10.8226C88.411 10.7352 88.5234 10.629 88.6233 10.5104C89.8971 9.02434 92.1387 7.86296 92.8442 7.64442L92.8567 7.63818H92.8692C94.0118 7.54452 95.117 7.38218 96.2846 7.20735C97.1338 7.08247 98.008 6.95134 98.9071 6.85144H98.9196C98.9446 6.85144 98.9633 6.85144 98.9883 6.85144C101.767 6.85144 103.846 7.94413 104.677 8.46238C104.695 8.51233 104.708 8.56228 104.726 8.61224C104.733 8.62472 104.733 8.63097 104.739 8.64346C104.739 8.68716 104.758 8.74336 104.77 8.79955Z" fill="#4A4A4A"/>
<path d="M97.1265 9.87337C97.1265 9.87337 92.0003 9.45502 91.457 12.3959C91.457 12.3959 91.4882 14.2941 93.4051 15.8988C93.4051 15.8988 95.0098 16.8791 94.9974 15.0559C94.9974 15.0559 92.1002 11.9526 96.2461 11.0972L97.1265 9.87337Z" fill="white"/>
<path d="M97.1385 9.7617L97.1323 9.85536V9.87409L97.126 9.98648C97.126 9.98648 97.1011 9.98648 97.0574 9.98024C97.0261 9.98024 96.9887 9.97399 96.945 9.97399C96.8888 9.97399 96.8201 9.96775 96.7389 9.96775C96.2581 9.95526 95.4027 9.96775 94.5223 10.1426C92.8739 10.4673 91.8998 11.1666 91.6189 12.2343C91.6064 12.2718 91.6001 12.3155 91.5876 12.3529C91.5814 12.3717 91.5814 12.3842 91.5752 12.4029C91.5752 12.4154 91.5752 12.4404 91.5814 12.4716C91.6064 12.7401 91.7375 13.6454 92.4119 14.6382C92.4368 14.6694 92.4556 14.7007 92.4805 14.7381C92.5055 14.7694 92.5242 14.8006 92.5492 14.838C92.7927 15.1627 93.0924 15.4937 93.4733 15.8121C93.542 15.8558 94.1664 16.2055 94.5473 15.9869C94.6534 15.9245 94.7346 15.8183 94.7908 15.6747C94.8033 15.6373 94.8158 15.5998 94.8283 15.5561C94.8407 15.5124 94.847 15.4749 94.8532 15.425C94.8657 15.3313 94.8782 15.2252 94.8782 15.1065C94.7846 15.0066 94.5223 14.6944 94.2913 14.2761C94.2725 14.2449 94.2538 14.2074 94.2351 14.1762C94.2164 14.145 94.1976 14.1075 94.1851 14.07C94.1664 14.0388 94.1539 14.0013 94.1352 13.9701C93.9291 13.5143 93.8043 12.9836 93.9666 12.4778C94.1976 11.7535 94.9531 11.2602 96.2144 10.998L96.2394 11.1104L96.2644 11.2228C95.0905 11.4663 94.3912 11.9096 94.1851 12.5465C94.054 12.9524 94.1414 13.3894 94.3038 13.7828C94.335 13.8577 94.3725 13.9327 94.4037 14.0076C94.4224 14.0451 94.4411 14.0763 94.4599 14.1075C94.4786 14.145 94.4973 14.1762 94.5161 14.2074C94.7783 14.657 95.0655 14.9754 95.0718 14.9816L95.103 15.0129V15.0566C95.103 15.2501 95.0905 15.425 95.053 15.5748C95.0468 15.6185 95.0343 15.656 95.0218 15.6935C95.0093 15.7309 94.9968 15.7684 94.9781 15.8058C94.9032 15.9744 94.797 16.0931 94.6534 16.1742C94.5285 16.2429 94.3849 16.2741 94.2413 16.2741C93.8042 16.2741 93.3609 16.0057 93.336 15.9932L93.3235 15.9807C92.8989 15.6248 92.568 15.2564 92.3057 14.9005C92.2807 14.8693 92.2558 14.838 92.237 14.8006C92.212 14.7694 92.1933 14.7319 92.1683 14.7007C91.5065 13.7079 91.3691 12.815 91.3441 12.5028C91.3379 12.4404 91.3379 12.4029 91.3379 12.3904V12.3779V12.3654C91.3441 12.3342 91.3504 12.303 91.3566 12.2718C91.5065 11.6099 91.8936 11.0667 92.5118 10.6483C92.7927 10.461 93.1174 10.2987 93.4858 10.1676C93.7855 10.0614 94.1102 9.97399 94.4599 9.90531C95.64 9.67428 96.7826 9.72423 97.0574 9.74297C97.1136 9.75545 97.1323 9.7617 97.1385 9.7617Z" fill="#4A4A4A"/>
<path d="M93.7532 14.3816C93.7532 14.3816 94.8708 16.1362 96.4631 16.2798C97.6806 16.3422 98.1489 16.3922 98.5048 15.4056C98.5048 15.4056 93.5971 13.3201 95.6701 12.2711L93.7532 14.3816Z" fill="white"/>
<path d="M98.6485 15.3433L98.611 15.4432C98.5985 15.4807 98.586 15.5182 98.5673 15.5556C98.2738 16.2799 97.8867 16.4235 97.1936 16.4235C97.125 16.4235 97.05 16.4235 96.9751 16.4173C96.8939 16.4173 96.8065 16.4111 96.7191 16.4048C96.6567 16.3986 96.5942 16.3986 96.5318 16.3923L96.4506 16.3861C95.8887 16.3361 95.3891 16.0989 94.9708 15.8054C94.9396 15.7804 94.9083 15.7617 94.8771 15.7367C94.8459 15.7117 94.8147 15.6868 94.7835 15.6618C94.1528 15.1685 93.747 14.5816 93.6658 14.4567C93.6596 14.4442 93.6533 14.438 93.6533 14.4317L93.747 14.3693L93.8406 14.3068C93.8406 14.3068 93.8594 14.3381 93.8906 14.3818C94.0155 14.5566 94.3526 15.0062 94.8397 15.412C94.8709 15.437 94.9084 15.4682 94.9396 15.4932C94.9708 15.5182 95.0083 15.5431 95.0395 15.5681C95.4391 15.8616 95.9261 16.1051 96.4569 16.1488L96.5318 16.155C97.6307 16.2112 98.0303 16.2362 98.3425 15.4557C98.2676 15.4245 98.1615 15.3746 98.0241 15.3121C98.0178 15.3121 98.0178 15.3059 98.0116 15.3059C97.6932 15.156 97.2311 14.925 96.769 14.6565C96.3132 14.388 95.9448 14.1383 95.6701 13.8947C95.6327 13.8635 95.6014 13.8323 95.564 13.8011C95.5327 13.7699 95.4953 13.7386 95.4641 13.7074C95.1956 13.4327 95.0457 13.1829 95.027 12.9519C95.027 12.9394 95.027 12.9269 95.027 12.9144C95.0145 12.6147 95.2081 12.365 95.6014 12.1652L95.6514 12.2651L95.7013 12.365C95.3954 12.5211 95.2455 12.6959 95.2518 12.9019C95.258 13.133 95.4453 13.389 95.7263 13.645C95.7575 13.6762 95.795 13.7074 95.8325 13.7386C95.8699 13.7699 95.9074 13.8011 95.9449 13.8323C96.563 14.3193 97.4559 14.7939 98.0928 15.0998C98.2551 15.1747 98.405 15.2434 98.5236 15.2934L98.6485 15.3433Z" fill="#4A4A4A"/>
<path d="M100.617 16.0306C100.617 16.0681 100.611 16.1056 100.599 16.1493C100.493 16.5177 99.8557 16.8424 98.532 17.217C98.3509 17.2607 98.1886 17.2794 98.045 17.2794C97.1771 17.2794 96.8149 16.6176 96.7213 16.4053C96.7025 16.3678 96.6963 16.3428 96.6963 16.3428L96.8337 16.2991L96.9148 16.2742C96.9148 16.2804 96.9211 16.2866 96.9273 16.3054C96.9398 16.3303 96.9585 16.3741 96.9835 16.424C97.1334 16.6987 97.5517 17.2295 98.4821 16.9985C99.8557 16.6113 100.287 16.3179 100.374 16.1181C100.386 16.0868 100.393 16.0619 100.393 16.0369L100.617 16.0306Z" fill="#4A4A4A"/>
<path d="M104.774 15.4614C104.756 15.5364 104.737 15.6113 104.718 15.6862C104.699 15.6925 104.674 15.6987 104.649 15.6987C104.624 15.705 104.6 15.7112 104.575 15.7174C104.55 15.7237 104.525 15.7299 104.5 15.7362C104.437 15.7487 104.368 15.7674 104.3 15.7799C103.763 15.8923 103.026 16.0546 102.708 16.0983H102.689C102.445 16.1358 102.021 16.1982 101.471 16.1982C101.209 16.1982 100.922 16.1857 100.61 16.142C100.535 16.1358 100.454 16.1233 100.379 16.1108C99.979 16.0484 99.5481 15.9422 99.0923 15.7799L99.0861 15.7736L98.5803 15.5489L98.4742 15.5051L98.0496 15.3178H98.0434H98.0371L98.0808 15.2117L98.1245 15.1055L99.1735 15.5676C100.797 16.1545 102.146 15.9485 102.651 15.8673H102.67C102.976 15.8173 103.713 15.6612 104.25 15.5489C104.312 15.5364 104.362 15.5239 104.412 15.5114C104.531 15.4864 104.618 15.4677 104.687 15.4552C104.712 15.4489 104.743 15.4552 104.774 15.4614Z" fill="#4A4A4A"/>
<path d="M98.6426 8.88669C98.6426 8.88669 96.2824 10.4102 95.7392 10.7037C95.1959 10.9971 92.7108 12.1585 92.0178 12.2834C91.3309 12.4083 88.8771 12.7704 88.7334 13.3699C88.5898 13.9693 88.3338 14.756 89.7137 15.0682C90.4942 15.1993 91.5183 14.9995 92.1801 14.8309C92.842 14.6624 96.2824 13.3012 98.499 13.501L98.6426 8.88669Z" fill="white"/>
<path d="M98.6379 9.01871C98.6317 9.0312 98.6192 9.03744 98.6067 9.04368C98.3507 9.21227 97.6264 9.67432 96.9708 10.0864C96.4713 10.3986 96.003 10.6858 95.7907 10.7982C95.2725 11.073 92.7561 12.2531 92.0381 12.3904C91.9694 12.4029 91.882 12.4154 91.7821 12.4342C91.7197 12.4466 91.651 12.4591 91.576 12.4716C91.5386 12.4779 91.5011 12.4841 91.4636 12.4903C91.4262 12.4966 91.3887 12.5028 91.3513 12.5091C90.9392 12.584 90.4396 12.6839 89.9963 12.8088C89.0223 13.0773 88.8724 13.3083 88.8474 13.3895L88.8287 13.4644C88.7475 13.7891 88.6539 14.1637 88.8349 14.451C88.9786 14.682 89.272 14.8443 89.7403 14.9505C90.5333 15.0816 91.5885 14.8568 92.1505 14.7132C92.1567 14.7132 92.1692 14.707 92.1755 14.707C92.2067 14.7007 92.2504 14.6882 92.2941 14.6695C92.3316 14.657 92.369 14.6445 92.4127 14.632C92.5126 14.6008 92.6375 14.5571 92.7686 14.5134C93.0996 14.401 93.5179 14.2636 93.9924 14.12C94.0549 14.1013 94.1236 14.0826 94.186 14.0638C94.2235 14.0513 94.2609 14.0388 94.2984 14.0326C94.3359 14.0201 94.3733 14.0076 94.4108 14.0014C94.7542 13.9015 95.1164 13.8016 95.491 13.7142C95.5347 13.7017 95.5784 13.6954 95.6221 13.6829C95.6658 13.6705 95.7095 13.6642 95.7532 13.6517C96.6586 13.4519 97.6015 13.3146 98.3944 13.3707C98.4506 13.377 98.4943 13.4207 98.4943 13.4831C98.4943 13.4894 98.4943 13.4894 98.4943 13.4956V13.5019C98.4881 13.5643 98.4381 13.608 98.3757 13.6018C97.6514 13.5518 96.8022 13.6642 95.9718 13.839C95.9218 13.8515 95.8781 13.8578 95.8282 13.8703C95.7845 13.8828 95.7345 13.889 95.6908 13.9015C95.2912 13.9951 94.8916 14.1013 94.5232 14.2074C94.4857 14.2199 94.4483 14.2324 94.4108 14.2387C94.3733 14.2511 94.3359 14.2636 94.2984 14.2699C94.1673 14.3073 94.0362 14.351 93.9113 14.3885C93.8738 14.401 93.8363 14.4135 93.7989 14.426C93.7614 14.4385 93.724 14.451 93.6865 14.4634C93.368 14.5633 93.0871 14.657 92.8498 14.7382C92.7437 14.7756 92.6437 14.8069 92.5563 14.8318C92.5126 14.8443 92.4752 14.8568 92.4377 14.8693C92.394 14.8818 92.3565 14.8943 92.3191 14.9068C92.2816 14.9192 92.2441 14.9317 92.2129 14.938C91.6697 15.0816 90.9516 15.2252 90.2898 15.2252C90.0837 15.2252 89.8902 15.2127 89.7029 15.1815H89.6966C89.1659 15.0629 88.8225 14.8631 88.6476 14.5758C88.4166 14.2074 88.529 13.7641 88.6164 13.4145L88.6351 13.3458C88.7538 12.8525 89.9838 12.5403 91.3762 12.2843C91.4199 12.2781 91.4574 12.2718 91.5011 12.2593C91.5448 12.2531 91.5823 12.2468 91.626 12.2343C91.6697 12.2281 91.7197 12.2156 91.7634 12.2094C91.8633 12.1906 91.9507 12.1781 92.0194 12.1657C92.675 12.047 95.1101 10.9169 95.7033 10.5984C95.8906 10.4985 96.2965 10.2488 96.746 9.96779C96.8022 9.93032 96.8647 9.89286 96.9209 9.8554C96.9771 9.81793 97.0333 9.78671 97.0895 9.74925C97.6826 9.37461 98.2758 8.99373 98.5006 8.85012C98.5505 8.8189 98.6255 8.83139 98.6567 8.88134C98.6692 8.93129 98.6692 8.98124 98.6379 9.01871Z" fill="#4A4A4A"/>
<path d="M85.5881 12.3148L84.8389 13.0516L85.4882 13.8321H86.044L86.4061 13.6073L86.5247 13.5386L86.5435 13.3513L86.6371 12.4335L85.5881 12.3148ZM86.3999 13.4325V13.4512V13.4762L86.0877 13.6698L86.0627 13.5948L85.9503 13.2202L86.4685 12.7706L86.4498 12.9579L86.3999 13.4325ZM86.506 12.5583L86.2125 12.8143L85.788 12.4709L86.506 12.5583ZM85.6631 12.5458L85.7318 12.602L86.1064 12.9018L85.8504 13.1265L85.7005 13.114L85.6006 13.1078L85.6631 12.5458ZM85.5319 12.5521L85.4695 13.0953L85.5132 13.1016L85.0199 13.0641L85.5319 12.5521ZM85.5507 13.7072L85.4882 13.6323L85.2322 13.3139L85.1386 13.2015L85.8192 13.2514L85.9378 13.6385L85.9565 13.701H85.5507V13.7072Z" fill="#4A4A4A"/>
<path d="M89.9071 14.6875C89.6136 14.6875 89.4263 14.6063 89.3077 14.5252C89.1391 14.4128 89.0642 14.2567 89.0517 14.163C89.0204 13.9694 89.0579 13.8196 89.0954 13.7134C89.1516 13.5511 89.2765 13.4262 89.445 13.3763C89.7135 13.2951 90.2068 13.1889 90.3254 13.164C90.5877 13.1078 90.9373 13.4387 91.0185 13.8196C91.1059 14.2192 90.8687 14.5189 90.3941 14.6251C90.2006 14.6688 90.0445 14.6875 89.9071 14.6875ZM90.3754 13.3013C90.3629 13.3013 90.3567 13.3013 90.3442 13.3013C90.1693 13.3388 89.7135 13.4387 89.4763 13.5136C89.3576 13.5511 89.264 13.6448 89.2203 13.7571C89.189 13.857 89.1578 13.9757 89.1828 14.1443C89.189 14.2005 89.239 14.3191 89.3826 14.4128C89.5325 14.5127 89.8259 14.6126 90.3567 14.4939C90.8999 14.3691 90.9124 14.0444 90.8749 13.857C90.8062 13.5511 90.544 13.3013 90.3754 13.3013Z" fill="#4A4A4A"/>
<path d="M97.246 16.1175C97.1149 16.1175 96.99 16.0926 96.8839 16.0301C96.5155 15.8178 96.3968 15.5306 96.5654 15.2434C96.7465 14.9249 97.1586 14.8188 97.477 14.9999C97.6956 15.1247 97.9453 15.337 97.989 15.5556C98.0078 15.643 97.9891 15.7304 97.9391 15.8053C97.7955 16.0051 97.5083 16.1175 97.246 16.1175ZM97.1399 15.0685C96.965 15.0685 96.7902 15.1622 96.6966 15.3245C96.5467 15.5868 96.759 15.7804 96.9588 15.899C97.2023 16.0426 97.6456 15.9489 97.808 15.7179C97.8329 15.6805 97.8392 15.643 97.8329 15.593C97.7955 15.4369 97.5894 15.2496 97.3959 15.1372C97.3147 15.0935 97.221 15.0685 97.1399 15.0685Z" fill="#4A4A4A"/>
<path d="M93.5982 16.068C93.592 16.068 93.5795 16.068 93.5732 16.068L93.5857 15.9244C93.7169 15.9431 94.1352 15.787 94.2913 15.5435C94.36 15.4436 94.3662 15.3437 94.31 15.2376L94.4412 15.1689C94.5223 15.3187 94.5098 15.4748 94.4162 15.6247C94.2351 15.8994 93.7918 16.068 93.5982 16.068Z" fill="#4A4A4A"/>
<path d="M2.25457 10.1484C2.25457 9.41783 2.21711 8.83714 2.13594 8.4063C2.05477 7.97547 1.94238 7.6383 1.79252 7.39478C1.64267 7.15127 1.46159 6.98893 1.24305 6.90776C1.02451 6.82658 0.768512 6.78912 0.475046 6.78912C0.206556 6.78912 0.0504567 6.64551 0.00674898 6.36453C-0.0369587 6.08355 0.137872 5.93994 0.512509 5.93994H10.5715C12.1138 5.93994 13.3938 6.18346 14.424 6.67048C15.4543 7.15751 16.2348 7.76942 16.778 8.51245C17.3212 9.25548 17.6272 10.061 17.7084 10.9226C17.7895 11.7905 17.6459 12.6085 17.2838 13.3765C16.9154 14.1445 16.3409 14.8126 15.5604 15.3621C14.7737 15.9178 13.7872 16.2362 12.6008 16.3174C14.0869 16.3986 15.3107 16.7857 16.2723 17.4725C17.2338 18.1594 17.9207 19.0148 18.339 20.0263C18.7573 21.0378 18.9197 22.1243 18.826 23.2732C18.7324 24.4221 18.3577 25.4835 17.7084 26.4576C17.059 27.4316 16.1474 28.2434 14.9735 28.8927C13.7996 29.5421 12.3448 29.8668 10.6152 29.8668H0.512509C0.131628 29.8668 -0.0369587 29.7232 0.00674898 29.4422C0.0504567 29.1612 0.200312 29.0176 0.475046 29.0176C0.774755 29.0176 1.03076 28.9864 1.24305 28.9177C1.46159 28.849 1.64267 28.6992 1.79252 28.4744C1.94238 28.2434 2.05477 27.9124 2.13594 27.4816C2.21711 27.0508 2.25457 26.4701 2.25457 25.7395V10.1484ZM9.07297 16.0302C9.88469 16.0302 10.5653 15.7992 11.121 15.3433C11.6767 14.8813 12.1013 14.3193 12.401 13.6387C12.7007 12.9644 12.8506 12.2214 12.8693 11.4096C12.8818 10.5979 12.7569 9.8549 12.4822 9.18056C12.2137 8.50621 11.7953 7.93801 11.2271 7.47596C10.6589 7.0139 9.94088 6.78912 9.07922 6.78912H7.1311V16.0364H9.07297V16.0302ZM7.12486 29.0488H8.91063C10.072 29.0488 11.0336 28.7491 11.7891 28.1559C12.5446 27.5628 13.1066 26.8135 13.475 25.9081C13.8371 25.0027 14.0182 24.0224 13.9995 22.9672C13.987 21.912 13.7809 20.9317 13.3938 20.0263C13.0004 19.1209 12.4322 18.3717 11.6892 17.7785C10.9462 17.1853 10.0221 16.8856 8.91063 16.8856H7.12486V29.0488Z" fill="#231F20"/>
<path d="M26.9917 25.765C26.9917 27.0387 27.1416 27.9004 27.4351 28.3624C27.7348 28.8245 28.1781 29.0493 28.7713 29.0493C29.0397 29.0493 29.1771 29.1866 29.1771 29.4551C29.1771 29.7236 29.0273 29.861 28.7338 29.861H20.3856C20.0859 29.861 19.9423 29.7236 19.9423 29.4551C19.9423 29.1866 20.0797 29.0493 20.3482 29.0493C20.6479 29.0493 20.9039 29.0056 21.1162 28.9057C21.3347 28.812 21.5158 28.6434 21.6656 28.3999C21.8155 28.1564 21.9279 27.8255 22.0091 27.4071C22.0902 26.9888 22.1277 26.4393 22.1277 25.765V18.8716C22.1277 17.5479 21.9778 16.68 21.6844 16.2741C21.3847 15.8683 20.9413 15.6685 20.3482 15.6685C20.0797 15.6685 19.9236 15.5436 19.8799 15.3001C19.8362 15.0566 20.011 14.8942 20.3856 14.8131L26.0239 13.6767C26.486 13.5705 26.7607 13.5393 26.8544 13.5955C26.948 13.6517 26.998 13.9327 26.998 14.4447V25.765H26.9917ZM21.7218 8.24442C21.7218 7.37651 21.9778 6.72089 22.4898 6.27757C23.0018 5.83425 23.6262 5.60947 24.3568 5.60947C25.0873 5.60947 25.7055 5.86547 26.2237 6.37747C26.7357 6.88948 26.9917 7.51387 26.9917 8.24442C26.9917 8.97496 26.7357 9.59935 26.2237 10.1114C25.7117 10.6234 25.0873 10.8794 24.3568 10.8794C23.6262 10.8794 23.0018 10.6234 22.4898 10.1114C21.9778 9.59935 21.7218 8.97496 21.7218 8.24442Z" fill="#231F20"/>
<path d="M52.4177 10.8794C51.2251 10.8794 50.1762 11.1541 49.2521 11.7098C48.3342 12.2655 47.5287 12.9524 46.8419 13.7766C46.1551 14.6008 45.5681 15.4874 45.0998 16.4302C44.6253 17.3793 44.2569 18.2285 43.9822 18.984L38.5874 34.1131C38.4812 34.4128 38.3064 34.775 38.0629 35.2058C37.8194 35.6367 37.5009 36.0612 37.1076 36.4858C36.7142 36.9042 36.2709 37.2601 35.7714 37.5598C35.2718 37.8595 34.7099 38.0031 34.0855 38.0031C33.5173 38.0031 33.049 37.8158 32.6868 37.4349C32.3247 37.054 32.1124 36.6419 32.0562 36.1986C32 35.7553 32.1311 35.3307 32.4433 34.9436C32.7555 34.5502 33.2988 34.3254 34.0855 34.2755C34.304 34.2755 34.5975 34.2567 34.9784 34.213C35.3593 34.1693 35.7651 34.0569 36.1959 33.8696C36.6268 33.6823 37.0451 33.3951 37.451 33.0204C37.8568 32.6396 38.194 32.1151 38.4625 31.4407L39.2742 29.374L38.219 29.8173C37.732 30.0358 37.3386 29.9796 37.0451 29.6549C36.7454 29.3303 36.5206 28.9681 36.3583 28.5623L33.4798 20.6949C33.049 19.5335 32.6806 18.5657 32.3871 17.7977C32.0874 17.0297 31.8127 16.4178 31.5567 15.9744C31.3007 15.5311 31.0509 15.2127 30.8074 15.0191C30.5639 14.8318 30.2954 14.7381 29.9957 14.7381C29.7272 14.7381 29.5898 14.5945 29.5898 14.3135C29.5898 14.0326 29.7397 13.889 30.0332 13.889H37.938C38.2377 13.889 38.3813 14.0326 38.3813 14.3135C38.3813 14.5945 38.244 14.7381 37.9755 14.7381C37.6758 14.7381 37.451 14.8193 37.2886 14.9816C37.1263 15.144 37.0576 15.4499 37.0888 15.8933C37.1138 16.3366 37.2449 16.9485 37.476 17.7165C37.707 18.4845 38.0629 19.4648 38.5499 20.6574L40.5792 25.6026L43.0143 18.9528C43.2017 18.4096 43.4702 17.704 43.8073 16.8236C44.1445 15.9432 44.5316 15.0129 44.9625 14.0263C45.3933 13.0398 45.8803 12.047 46.4235 11.048C46.9668 10.0489 47.5475 9.14355 48.1656 8.33183C48.79 7.52012 49.4581 6.8645 50.1762 6.36499C50.888 5.85922 51.6372 5.60947 52.4177 5.60947C53.3106 5.60947 53.9725 5.8842 54.4033 6.43991C54.8342 6.99563 55.0527 7.59505 55.0527 8.24442C55.0527 8.89379 54.8342 9.49321 54.4033 10.0489C53.9725 10.6046 53.3106 10.8794 52.4177 10.8794Z" fill="#231F20"/>
<path d="M47.1123 21.7065C47.1123 19.9519 47.4432 18.4909 48.1051 17.3295C48.767 16.1681 49.5912 15.269 50.5777 14.6321C51.5642 13.9952 52.632 13.6018 53.7808 13.4582C54.9297 13.3084 55.9975 13.3833 56.984 13.683C57.9705 13.9827 58.7947 14.4697 59.4566 15.1441C60.1185 15.8184 60.4494 16.6739 60.4494 17.6979C60.4494 18.3472 60.2621 18.9966 59.8812 19.646C59.5003 20.2954 58.9696 20.8948 58.2827 21.4505C57.5959 22.0062 56.778 22.4932 55.8289 22.9116C54.8798 23.3299 53.8558 23.6359 52.7444 23.8232C53.2064 25.1781 53.8246 26.1647 54.6113 26.7828C55.398 27.4072 56.1973 27.7319 57.0215 27.7569C57.8457 27.7819 58.6324 27.5259 59.3754 26.9889C60.1185 26.4457 60.6804 25.6901 61.0613 24.7161C61.1987 24.4164 61.3673 24.2977 61.5671 24.3539C61.7669 24.4101 61.8293 24.5974 61.7481 24.9221C61.4234 26.2459 60.8365 27.3198 59.9811 28.144C59.1319 28.9682 58.1641 29.5364 57.0839 29.8486C56.0037 30.1608 54.8735 30.217 53.6997 30.0297C52.5258 29.8424 51.4519 29.4053 50.4778 28.7309C49.5037 28.0566 48.6983 27.1263 48.0676 25.9524C47.4245 24.7723 47.1123 23.3611 47.1123 21.7065ZM58.0205 17.4481C58.0205 16.7425 57.8706 16.1431 57.5772 15.6436C57.2775 15.1441 56.9153 14.7757 56.4845 14.5509C56.0536 14.3199 55.5729 14.2262 55.0421 14.2699C54.5176 14.3137 54.0368 14.5197 53.5998 14.9006C53.1689 15.2815 52.8005 15.8247 52.5071 16.5427C52.2074 17.2608 52.0638 18.1724 52.0638 19.2776C52.0638 20.7137 52.2136 21.9812 52.5071 23.0927C54.2929 22.6618 55.654 21.9375 56.6031 20.926C57.546 19.902 58.0205 18.7469 58.0205 17.4481Z" fill="#231F20"/>
<path d="M113.78 29.0047C114.079 29.0297 114.335 28.9673 114.548 28.8049C114.766 28.6426 114.947 28.3366 115.097 27.8933C115.247 27.45 115.359 26.8381 115.44 26.0701C115.522 25.3021 115.559 24.303 115.559 23.0917V10.2291C115.559 8.9304 115.409 8.1062 115.116 7.75654C114.816 7.40688 114.373 7.23205 113.78 7.23205C113.511 7.23205 113.355 7.08844 113.311 6.80746C113.268 6.52648 113.442 6.38287 113.817 6.38287H122.171C122.552 6.38287 122.721 6.52648 122.677 6.80746C122.633 7.08844 122.484 7.23205 122.209 7.23205C121.616 7.23205 121.166 7.43185 120.873 7.83771C120.573 8.24357 120.429 9.05528 120.429 10.2729V18.1402L128.016 9.26133C128.365 8.8305 128.59 8.46835 128.684 8.18737C128.778 7.90639 128.79 7.68161 128.728 7.51927C128.659 7.35693 128.534 7.24453 128.34 7.17585C128.153 7.10717 127.935 7.07595 127.691 7.07595C127.448 7.07595 127.329 6.94482 127.329 6.68882C127.329 6.43282 127.466 6.3017 127.735 6.3017H132.724C132.992 6.3017 133.13 6.43282 133.13 6.68882C133.13 6.94482 132.992 7.07595 132.724 7.07595C132.262 7.07595 131.768 7.20707 131.244 7.46307C130.719 7.71908 130.145 8.19986 129.521 8.90543L124.575 14.6624L130.538 25.9389C130.888 26.6445 131.181 27.194 131.412 27.5998C131.644 28.0057 131.837 28.3179 131.999 28.5302C132.162 28.7487 132.318 28.8861 132.468 28.9548C132.618 29.0235 132.811 29.0547 133.055 29.0547C133.354 29.0547 133.492 29.192 133.479 29.4605C133.467 29.729 133.311 29.8664 133.011 29.8664H124.738C124.438 29.8664 124.301 29.7228 124.313 29.4418C124.326 29.1608 124.482 29.0172 124.781 29.0172C125.268 29.0172 125.543 28.73 125.612 28.1431C125.681 27.5624 125.481 26.8256 125.025 25.9327L121.291 18.8333L120.442 19.8074V23.0542C120.442 25.377 120.592 26.9692 120.885 27.8184C121.185 28.6676 121.628 29.0672 122.221 29.0172C122.359 29.0172 122.465 29.0609 122.546 29.1421C122.627 29.2233 122.677 29.3169 122.69 29.4231C122.702 29.5292 122.671 29.6354 122.59 29.729C122.509 29.8227 122.371 29.8726 122.184 29.8726H113.83C113.642 29.8726 113.505 29.8289 113.424 29.729C113.342 29.6354 113.311 29.5355 113.324 29.4231C113.336 29.3169 113.386 29.2233 113.467 29.1421C113.536 29.0484 113.642 29.0047 113.78 29.0047Z" fill="#231F20"/>
<path d="M148.893 21.7055C148.893 23.5725 148.506 25.1272 147.737 26.3698C146.969 27.6123 146.008 28.5489 144.859 29.1671C143.71 29.7915 142.468 30.0974 141.125 30.0974C139.783 30.0974 138.54 29.7852 137.391 29.1671C136.242 28.5427 135.281 27.6123 134.513 26.3698C133.745 25.1272 133.358 23.5725 133.358 21.7055C133.358 19.8386 133.745 18.2838 134.513 17.0413C135.281 15.7988 136.242 14.8622 137.391 14.244C138.54 13.6196 139.783 13.3137 141.125 13.3137C142.468 13.3137 143.704 13.6259 144.859 14.244C146.008 14.8684 146.969 15.7988 147.737 17.0413C148.506 18.2901 148.893 19.8448 148.893 21.7055ZM143.985 21.7055C143.985 19.2454 143.685 17.391 143.092 16.1484C142.499 14.9059 141.843 14.2815 141.125 14.2815C140.407 14.2815 139.751 14.8996 139.158 16.1234C138.565 17.3535 138.265 19.2142 138.265 21.6993C138.265 24.2156 138.565 26.095 139.158 27.3376C139.751 28.5801 140.407 29.2045 141.125 29.2045C141.843 29.2045 142.499 28.5739 143.092 27.3189C143.691 26.0701 143.985 24.1969 143.985 21.7055Z" fill="#231F20"/>
<path d="M165.36 10.8794C164.524 10.8794 163.774 11.0667 163.113 11.4476C162.451 11.8285 161.87 12.3217 161.37 12.9274C160.871 13.5331 160.428 14.2199 160.053 14.9754C159.672 15.7309 159.347 16.4677 159.079 17.1858C158.81 17.9038 158.579 18.5719 158.392 19.1963C158.205 19.8207 158.03 20.3078 157.868 20.6574V23.9043C157.868 25.0656 157.911 25.9835 157.993 26.6641C158.074 27.3384 158.186 27.8567 158.336 28.2064C158.486 28.556 158.667 28.7808 158.885 28.8745C159.104 28.9681 159.36 29.0181 159.653 29.0181C159.922 29.0181 160.078 29.1617 160.122 29.4427C160.165 29.7236 159.991 29.8672 159.616 29.8672H151.262C150.881 29.8672 150.712 29.7236 150.756 29.4427C150.799 29.1617 150.949 29.0181 151.224 29.0181C151.524 29.0181 151.78 28.9806 151.992 28.8994C152.211 28.8183 152.392 28.6122 152.542 28.2688C152.691 27.9316 152.804 27.4259 152.885 26.7453C152.966 26.0709 153.004 25.1343 153.004 23.948V21.6377C153.004 20.4201 152.966 19.4211 152.885 18.6344C152.804 17.8539 152.691 17.2357 152.542 16.7924C152.392 16.3491 152.211 16.0431 151.992 15.8808C151.774 15.7184 151.518 15.6498 151.224 15.681C151.087 15.706 150.981 15.6872 150.899 15.6185C150.818 15.5499 150.768 15.4624 150.756 15.3563C150.743 15.2501 150.775 15.1502 150.856 15.0503C150.937 14.9567 151.074 14.8818 151.262 14.8256L156.9 13.6892C157.362 13.583 157.637 13.5518 157.73 13.608C157.824 13.6642 157.874 13.9452 157.874 14.4572V18.472C158.011 17.9288 158.18 17.2357 158.38 16.3865C158.579 15.5374 158.829 14.6382 159.129 13.6892C159.429 12.7401 159.772 11.791 160.165 10.8294C160.559 9.86786 161.008 9.00619 161.527 8.23194C162.039 7.46393 162.613 6.83329 163.25 6.34627C163.887 5.85924 164.592 5.61572 165.379 5.61572C166.272 5.61572 166.94 5.89046 167.39 6.44617C167.833 7.00188 168.052 7.6013 168.039 8.25067C168.027 8.90004 167.796 9.49946 167.352 10.0552C166.878 10.6046 166.222 10.8794 165.36 10.8794Z" fill="#231F20"/>
<path d="M178.136 22.7233C178.136 23.9409 178.18 24.89 178.261 25.5831C178.342 26.2699 178.454 26.7944 178.604 27.144C178.754 27.4937 178.935 27.7122 179.154 27.7934C179.372 27.8746 179.628 27.8871 179.922 27.8309C180.19 27.8059 180.346 27.9183 180.39 28.1743C180.434 28.4303 180.259 28.5989 179.884 28.6801L174.246 29.8165C173.784 29.9226 173.509 29.9538 173.415 29.8976C173.322 29.8414 173.272 29.5605 173.272 29.0484V27.2252C172.866 27.8496 172.342 28.3803 171.692 28.8299C171.043 29.2732 170.337 29.6166 169.582 29.8414C168.826 30.0725 168.058 30.1599 167.29 30.1037C166.522 30.0475 165.823 29.8289 165.205 29.4356C164.58 29.0422 164.075 28.4615 163.681 27.6935C163.288 26.9255 163.094 25.914 163.094 24.6714V21.6681C163.094 20.4505 163.057 19.4515 162.976 18.6647C162.894 17.878 162.782 17.2661 162.632 16.8228C162.482 16.3795 162.301 16.0735 162.083 15.9112C161.864 15.7488 161.608 15.6801 161.315 15.7114C161.177 15.7363 161.071 15.7176 160.99 15.6489C160.909 15.5802 160.859 15.4928 160.846 15.3867C160.834 15.2805 160.865 15.1806 160.946 15.0807C161.027 14.9871 161.165 14.9121 161.352 14.8559L166.99 13.7195C167.453 13.6134 167.727 13.5822 167.821 13.6384C167.915 13.6946 167.965 13.9755 167.965 14.4875V24.6652C167.965 25.6143 168.071 26.3573 168.289 26.8943C168.508 27.4375 168.782 27.8059 169.12 28.012C169.457 28.2118 169.838 28.2804 170.256 28.2118C170.674 28.1431 171.08 27.9932 171.474 27.7684C171.867 27.5374 172.223 27.2564 172.548 26.9193C172.872 26.5821 173.116 26.2387 173.278 25.8828V21.6681C173.278 20.4505 173.241 19.4515 173.159 18.6647C173.078 17.878 172.966 17.2661 172.816 16.8228C172.666 16.3795 172.485 16.0735 172.267 15.9112C172.048 15.7488 171.792 15.6801 171.499 15.7114C171.361 15.7363 171.255 15.7176 171.174 15.6489C171.093 15.5802 171.043 15.4928 171.03 15.3867C171.018 15.2805 171.049 15.1806 171.13 15.0807C171.211 14.9871 171.349 14.9121 171.536 14.8559L177.174 13.7195C177.636 13.6134 177.911 13.5822 178.005 13.6384C178.098 13.6946 178.148 13.9755 178.148 14.4875V22.7233H178.136Z" fill="#231F20"/>
<path d="M198.13 23.8977C198.13 25.0591 198.161 25.9769 198.23 26.6575C198.299 27.3319 198.405 27.8501 198.555 28.1998C198.705 28.5494 198.886 28.7742 199.104 28.8679C199.323 28.9615 199.579 29.0115 199.872 29.0115C200.141 29.0115 200.297 29.1551 200.341 29.4361C200.384 29.717 200.209 29.8607 199.835 29.8607H191.48C191.1 29.8607 190.931 29.717 190.975 29.4361C191.018 29.1551 191.168 29.0115 191.443 29.0115C191.743 29.0115 191.999 28.974 192.211 28.8928C192.43 28.8117 192.611 28.6119 192.76 28.2872C192.91 27.9625 193.023 27.463 193.104 26.7886C193.185 26.1143 193.229 25.1652 193.229 23.9476V18.8401C193.229 17.4102 192.998 16.4362 192.542 15.9179C192.08 15.4059 191.549 15.1874 190.937 15.2685C190.332 15.3497 189.738 15.6307 189.17 16.1177C188.602 16.6047 188.196 17.1043 187.953 17.6163V23.9039C187.953 25.0653 187.996 25.9832 188.077 26.6638C188.159 27.3381 188.271 27.8563 188.421 28.206C188.571 28.5557 188.752 28.7805 188.97 28.8741C189.189 28.9678 189.445 29.0177 189.738 29.0177C190.007 29.0177 190.163 29.1613 190.207 29.4423C190.25 29.7233 190.076 29.8669 189.701 29.8669H181.346C180.966 29.8669 180.797 29.7233 180.841 29.4423C180.884 29.1613 181.034 29.0177 181.309 29.0177C181.609 29.0177 181.865 28.9803 182.077 28.8991C182.296 28.8179 182.477 28.6181 182.627 28.2934C182.776 27.9687 182.889 27.4692 182.97 26.7949C183.051 26.1205 183.089 25.1714 183.089 23.9539V21.6436C183.089 20.426 183.051 19.427 182.97 18.6403C182.889 17.8598 182.776 17.2416 182.627 16.7983C182.477 16.355 182.296 16.049 182.077 15.8867C181.859 15.7243 181.602 15.6557 181.309 15.6869C181.172 15.7119 181.066 15.6931 180.984 15.6244C180.903 15.5558 180.853 15.4683 180.841 15.3622C180.828 15.256 180.859 15.1561 180.941 15.0562C181.022 14.9626 181.159 14.8876 181.346 14.8315L186.985 13.6951C187.447 13.5889 187.722 13.5577 187.815 13.6139C187.909 13.6701 187.959 13.9511 187.959 14.4631V16.2863C188.365 15.6619 188.889 15.1312 189.539 14.6878C190.188 14.2445 190.887 13.9011 191.649 13.6763C192.405 13.4453 193.173 13.3579 193.941 13.4141C194.709 13.4703 195.408 13.6888 196.026 14.0822C196.65 14.4755 197.156 15.0625 197.55 15.8492C197.943 16.636 198.136 17.635 198.136 18.8526V23.8977H198.13Z" fill="#231F20"/>
<path d="M32.114 47.5492C32.1702 47.6866 32.2264 47.8239 32.2826 47.9613C32.3388 47.8177 32.395 47.6803 32.4512 47.5429C32.5074 47.4056 32.5761 47.2745 32.6385 47.1496L35.1611 42.4291C35.1923 42.373 35.2235 42.323 35.261 42.2855C35.2922 42.2481 35.3297 42.2231 35.3734 42.2106C35.4171 42.1981 35.4608 42.1856 35.5107 42.1794C35.5607 42.1731 35.6231 42.1731 35.6918 42.1731H36.8906V50.6899H35.492V45.1827C35.492 45.0828 35.492 44.9704 35.4982 44.8456C35.5045 44.7269 35.5107 44.602 35.5232 44.4772L32.9445 49.31C32.8883 49.4224 32.8071 49.5035 32.7134 49.566C32.6198 49.6284 32.5074 49.6596 32.3825 49.6596H32.164C32.0391 49.6596 31.9267 49.6284 31.833 49.566C31.7394 49.5035 31.6645 49.4224 31.602 49.31L28.992 44.4584C29.0108 44.5896 29.017 44.7144 29.0233 44.8393C29.0295 44.9642 29.0295 45.0766 29.0295 45.1827V50.6899H27.6309V42.1669H28.8297C28.8984 42.1669 28.9608 42.1669 29.0108 42.1731C29.0607 42.1794 29.1107 42.1856 29.1481 42.2044C29.1856 42.2231 29.2293 42.2481 29.2605 42.2793C29.298 42.3168 29.3292 42.3605 29.3604 42.4229L31.908 47.1558C31.9954 47.2807 32.0578 47.4118 32.114 47.5492Z" fill="#231F20"/>
<path d="M43.3934 44.5466C43.7743 44.5466 44.124 44.6091 44.4487 44.7277C44.7671 44.8526 45.0418 45.0274 45.2791 45.2584C45.5101 45.4895 45.6912 45.7767 45.8223 46.1201C45.9535 46.4573 46.0159 46.8507 46.0159 47.2877C46.0159 47.4001 46.0096 47.4875 46.0034 47.5625C45.9909 47.6374 45.9784 47.6936 45.9472 47.731C45.9222 47.7748 45.8848 47.7997 45.8411 47.8185C45.7974 47.8372 45.7412 47.8434 45.6787 47.8434H41.9386C41.9823 48.4616 42.1509 48.9174 42.4381 49.2109C42.7316 49.5043 43.1125 49.6479 43.5932 49.6479C43.8305 49.6479 44.0303 49.623 44.2051 49.5668C44.3737 49.5106 44.5236 49.4481 44.6547 49.3857C44.7796 49.317 44.892 49.2608 44.9919 49.2046C45.0855 49.1484 45.1792 49.1235 45.2729 49.1235C45.3291 49.1235 45.3853 49.1359 45.429 49.1609C45.4727 49.1859 45.5101 49.2171 45.5414 49.2608L45.9659 49.7916C45.8036 49.9789 45.6225 50.1412 45.4227 50.2661C45.2229 50.391 45.0106 50.4971 44.7921 50.572C44.5735 50.647 44.3488 50.7032 44.124 50.7344C43.8992 50.7656 43.6807 50.7843 43.4684 50.7843C43.05 50.7843 42.6566 50.7157 42.2945 50.572C41.9323 50.4347 41.6201 50.2286 41.3517 49.9539C41.0832 49.6792 40.8771 49.342 40.721 48.9424C40.5649 48.5428 40.49 48.0745 40.49 47.5437C40.49 47.1316 40.5587 46.7445 40.6898 46.3761C40.8209 46.014 41.0145 45.6955 41.2642 45.427C41.514 45.1585 41.82 44.9462 42.1759 44.7901C42.538 44.6278 42.9439 44.5466 43.3934 44.5466ZM43.4247 45.5956C43.0001 45.5956 42.6691 45.7143 42.4256 45.9578C42.1883 46.195 42.0322 46.5385 41.9636 46.9755H44.6984C44.6984 46.7882 44.6734 46.6071 44.6235 46.4448C44.5735 46.2762 44.4924 46.1326 44.3862 46.0077C44.2801 45.8828 44.149 45.7829 43.9866 45.708C43.8243 45.6268 43.6369 45.5956 43.4247 45.5956Z" fill="#231F20"/>
<path d="M52.0529 44.5466C52.4337 44.5466 52.7834 44.6091 53.1081 44.7277C53.4265 44.8526 53.7013 45.0274 53.9385 45.2584C54.1696 45.4895 54.3506 45.7767 54.4818 46.1201C54.6129 46.4573 54.6753 46.8507 54.6753 47.2877C54.6753 47.4001 54.6691 47.4875 54.6628 47.5625C54.6503 47.6374 54.6378 47.6936 54.6066 47.731C54.5817 47.7748 54.5442 47.7997 54.5005 47.8185C54.4568 47.8372 54.4006 47.8434 54.3381 47.8434H50.598C50.6417 48.4616 50.8103 48.9174 51.0975 49.2109C51.391 49.5043 51.7719 49.6479 52.2527 49.6479C52.4899 49.6479 52.6897 49.623 52.8646 49.5668C53.0332 49.5106 53.183 49.4481 53.3141 49.3857C53.439 49.317 53.5514 49.2608 53.6513 49.2046C53.745 49.1484 53.8386 49.1235 53.9323 49.1235C53.9885 49.1235 54.0447 49.1359 54.0884 49.1609C54.1321 49.1859 54.1696 49.2171 54.2008 49.2608L54.6254 49.7916C54.463 49.9789 54.2819 50.1412 54.0821 50.2661C53.8823 50.391 53.67 50.4971 53.4515 50.572C53.233 50.647 53.0082 50.7032 52.7834 50.7344C52.5586 50.7656 52.3401 50.7843 52.1278 50.7843C51.7094 50.7843 51.3161 50.7157 50.9539 50.572C50.5918 50.4347 50.2796 50.2286 50.0111 49.9539C49.7426 49.6792 49.5365 49.342 49.3804 48.9424C49.2243 48.5428 49.1494 48.0745 49.1494 47.5437C49.1494 47.1316 49.2181 46.7445 49.3492 46.3761C49.4803 46.014 49.6739 45.6955 49.9237 45.427C50.1734 45.1585 50.4794 44.9462 50.8353 44.7901C51.1974 44.6278 51.6033 44.5466 52.0529 44.5466ZM52.0841 45.5956C51.6595 45.5956 51.3286 45.7143 51.085 45.9578C50.8478 46.195 50.6917 46.5385 50.623 46.9755H53.3578C53.3578 46.7882 53.3329 46.6071 53.2829 46.4448C53.233 46.2762 53.1518 46.1326 53.0456 46.0077C52.9395 45.8828 52.8084 45.7829 52.646 45.708C52.4899 45.6268 52.2964 45.5956 52.0841 45.5956Z" fill="#231F20"/>
<path d="M60.2005 50.7841C59.676 50.7841 59.2764 50.6343 58.9891 50.3408C58.7082 50.0411 58.5646 49.6352 58.5646 49.1107V45.7328H57.9526C57.8715 45.7328 57.809 45.7078 57.7466 45.6578C57.6904 45.6079 57.6592 45.5329 57.6592 45.4268V44.8461L58.6332 44.69L58.9392 43.0416C58.9579 42.9604 58.9891 42.9042 59.0453 42.8605C59.1015 42.8168 59.1765 42.7981 59.2576 42.7981H60.0132V44.7025H61.6054V45.739H60.0132V49.0171C60.0132 49.2044 60.0631 49.3543 60.1568 49.4604C60.2504 49.5665 60.3753 49.6165 60.5314 49.6165C60.6188 49.6165 60.7 49.604 60.7562 49.5853C60.8124 49.5665 60.8686 49.5416 60.9185 49.5166C60.9622 49.4916 61.0059 49.4729 61.0372 49.4479C61.0746 49.4292 61.1058 49.4167 61.1433 49.4167C61.187 49.4167 61.2245 49.4292 61.2495 49.4479C61.2744 49.4666 61.3057 49.5041 61.3369 49.5478L61.7739 50.2534C61.5617 50.4282 61.3181 50.5656 61.0434 50.653C60.7812 50.7404 60.4939 50.7841 60.2005 50.7841Z" fill="#231F20"/>
<path d="M72.9013 42.0735C73.2447 42.0735 73.5569 42.1297 73.8316 42.2358C74.1064 42.342 74.3374 42.4856 74.5309 42.6604C74.7245 42.8352 74.8806 43.0413 74.993 43.2661C75.1054 43.4971 75.1678 43.7281 75.1928 43.9716L74.2687 44.1652C74.2562 44.1715 74.2437 44.1715 74.2312 44.1715C74.2187 44.1715 74.2063 44.1715 74.1938 44.1715C74.1251 44.1715 74.0689 44.1527 74.0127 44.1153C73.9565 44.0778 73.919 44.0216 73.8878 43.9404C73.8504 43.8405 73.8066 43.7406 73.7504 43.647C73.6943 43.5533 73.6256 43.4721 73.5506 43.4034C73.4695 43.3348 73.3821 43.2786 73.2759 43.2411C73.1698 43.1974 73.0449 43.1787 72.9075 43.1787C72.7452 43.1787 72.5953 43.2099 72.4642 43.2661C72.3331 43.3223 72.2269 43.3972 72.1333 43.4971C72.0458 43.5908 71.9772 43.7032 71.9272 43.8343C71.8773 43.9654 71.8585 44.0965 71.8585 44.2401C71.8585 44.3588 71.871 44.4712 71.896 44.5836C71.921 44.6959 71.9647 44.8021 72.0146 44.9145C72.0708 45.0269 72.1395 45.1393 72.2269 45.2517C72.3143 45.3703 72.4267 45.4952 72.5516 45.6263L74.8182 47.9803C74.9493 47.7305 75.0492 47.4683 75.1304 47.1935C75.2115 46.9188 75.2615 46.6378 75.2865 46.3568C75.2927 46.2694 75.3239 46.1945 75.3739 46.1383C75.4238 46.0821 75.4988 46.0571 75.5862 46.0571H76.4978C76.4915 46.5754 76.4166 47.0687 76.273 47.5432C76.1294 48.0177 75.9171 48.4486 75.6486 48.8482L77.4344 50.6964H76.0108C75.9358 50.6964 75.8734 50.6901 75.811 50.6839C75.7548 50.6777 75.6986 50.6589 75.6486 50.6402C75.5987 50.6215 75.5487 50.5902 75.4988 50.5528C75.4488 50.5153 75.4051 50.4716 75.3489 50.4154L74.762 49.8097C74.3873 50.1157 73.9627 50.353 73.5007 50.5278C73.0386 50.7026 72.5391 50.79 72.0021 50.79C71.6712 50.79 71.3528 50.7339 71.0343 50.6215C70.7221 50.5091 70.4412 50.3467 70.1914 50.1344C69.9416 49.9221 69.7418 49.6661 69.592 49.3664C69.4421 49.0667 69.3672 48.7295 69.3672 48.3487C69.3672 48.0864 69.4109 47.8367 69.4983 47.5994C69.5857 47.3621 69.7044 47.1436 69.8605 46.9375C70.0166 46.7315 70.1976 46.5504 70.4037 46.3818C70.616 46.2195 70.847 46.0759 71.0968 45.9572C70.8907 45.6638 70.7346 45.3765 70.641 45.0956C70.5473 44.8146 70.4973 44.5336 70.4973 44.2526C70.4973 43.9592 70.5535 43.6782 70.6597 43.4097C70.7658 43.1412 70.9219 42.9164 71.1342 42.7166C71.3403 42.5231 71.59 42.367 71.8897 42.2483C72.1832 42.1297 72.5204 42.0735 72.9013 42.0735ZM70.847 48.23C70.847 48.4486 70.8845 48.6421 70.9594 48.8107C71.0343 48.9855 71.1342 49.1292 71.2654 49.2478C71.3965 49.3664 71.5463 49.4601 71.7149 49.5225C71.8835 49.585 72.0646 49.6224 72.2581 49.6224C72.6016 49.6224 72.92 49.5662 73.2072 49.4601C73.4944 49.3539 73.7504 49.2041 73.9877 49.0105L71.7461 46.7127C71.4339 46.9188 71.2029 47.1498 71.0593 47.4058C70.9219 47.6556 70.847 47.9303 70.847 48.23Z" fill="#231F20"/>
<path d="M89.1787 49.5225C89.5347 49.5225 89.8469 49.4913 90.1153 49.4226C90.3776 49.3602 90.6336 49.2665 90.8709 49.1542V47.6057H89.8031C89.7032 47.6057 89.6221 47.5744 89.5596 47.5182C89.5034 47.462 89.4722 47.3934 89.4722 47.3059V46.4068H92.307V49.8535C92.0884 50.0096 91.8636 50.1469 91.6326 50.2656C91.4016 50.3842 91.1518 50.4779 90.8833 50.5528C90.6211 50.6277 90.3339 50.6839 90.0342 50.7214C89.7282 50.7588 89.4035 50.7776 89.0539 50.7776C88.4357 50.7776 87.8613 50.6714 87.3368 50.4529C86.8123 50.2344 86.3627 49.9346 85.9818 49.5538C85.601 49.1666 85.3013 48.7108 85.089 48.1738C84.8767 47.6369 84.7705 47.0562 84.7705 46.4255C84.7705 45.7824 84.8767 45.1955 85.0827 44.6647C85.2888 44.1278 85.5885 43.672 85.9693 43.2848C86.3502 42.8977 86.8185 42.598 87.3618 42.3857C87.905 42.1734 88.5231 42.0673 89.2037 42.0673C89.8968 42.0673 90.5025 42.1734 91.0082 42.3795C91.5202 42.5855 91.9511 42.854 92.3007 43.1849L91.8387 43.903C91.7513 44.0466 91.6264 44.1215 91.4765 44.1215C91.3829 44.1215 91.283 44.0903 91.1893 44.0279C91.0644 43.9529 90.9333 43.878 90.8022 43.8031C90.671 43.7282 90.5274 43.6657 90.3651 43.6095C90.209 43.5533 90.0279 43.5096 89.8281 43.4722C89.6283 43.4347 89.4035 43.416 89.1413 43.416C88.7229 43.416 88.342 43.4846 87.9986 43.6282C87.6615 43.7719 87.368 43.9717 87.1307 44.2339C86.8935 44.4962 86.7061 44.8146 86.575 45.183C86.4439 45.5514 86.3814 45.9635 86.3814 46.4193C86.3814 46.9126 86.4501 47.3496 86.5875 47.7305C86.7249 48.1114 86.9184 48.4361 87.1682 48.6983C87.418 48.9606 87.7114 49.1604 88.0548 49.304C88.3983 49.4539 88.7729 49.5225 89.1787 49.5225Z" fill="#231F20"/>
<path d="M98.5626 44.5466C98.9435 44.5466 99.2932 44.6091 99.6178 44.7277C99.9363 44.8526 100.211 45.0274 100.448 45.2584C100.679 45.4895 100.86 45.7767 100.992 46.1201C101.123 46.4573 101.185 46.8507 101.185 47.2877C101.185 47.4001 101.179 47.4875 101.173 47.5625C101.16 47.6374 101.148 47.6936 101.116 47.731C101.091 47.7748 101.054 47.7997 101.01 47.8185C100.967 47.8372 100.91 47.8434 100.848 47.8434H97.1078C97.1515 48.4616 97.3201 48.9174 97.6073 49.2109C97.9008 49.5043 98.2816 49.6479 98.7624 49.6479C98.9997 49.6479 99.1995 49.623 99.3743 49.5668C99.5429 49.5106 99.6928 49.4481 99.8239 49.3857C99.9488 49.317 100.061 49.2608 100.161 49.2046C100.255 49.1484 100.348 49.1235 100.442 49.1235C100.498 49.1235 100.554 49.1359 100.598 49.1609C100.642 49.1859 100.679 49.2171 100.711 49.2608L101.135 49.7916C100.973 49.9789 100.792 50.1412 100.592 50.2661C100.392 50.391 100.18 50.4971 99.9613 50.572C99.7427 50.647 99.5179 50.7032 99.2932 50.7344C99.0684 50.7656 98.8498 50.7843 98.6375 50.7843C98.2192 50.7843 97.8258 50.7157 97.4637 50.572C97.1015 50.4347 96.7893 50.2286 96.5208 49.9539C96.2524 49.6792 96.0463 49.342 95.8902 48.9424C95.7341 48.5428 95.6592 48.0745 95.6592 47.5437C95.6592 47.1316 95.7279 46.7445 95.859 46.3761C95.9901 46.014 96.1837 45.6955 96.4334 45.427C96.6832 45.1585 96.9891 44.9462 97.345 44.7901C97.701 44.6278 98.1068 44.5466 98.5626 44.5466ZM98.5876 45.5956C98.163 45.5956 97.8321 45.7143 97.5886 45.9578C97.3513 46.195 97.1952 46.5385 97.1265 46.9755H99.8614C99.8614 46.7882 99.8364 46.6071 99.7864 46.4448C99.7365 46.2762 99.6553 46.1326 99.5492 46.0077C99.443 45.8828 99.3119 45.7829 99.1495 45.708C98.9934 45.6268 98.8061 45.5956 98.5876 45.5956Z" fill="#231F20"/>
<path d="M106.711 50.7841C106.187 50.7841 105.787 50.6343 105.5 50.3408C105.219 50.0411 105.075 49.6352 105.075 49.1107V45.7328H104.463C104.382 45.7328 104.32 45.7078 104.257 45.6578C104.201 45.6079 104.17 45.5329 104.17 45.4268V44.8461L105.144 44.69L105.45 43.0416C105.469 42.9604 105.5 42.9042 105.556 42.8605C105.612 42.8168 105.687 42.7981 105.768 42.7981H106.524V44.7025H108.116V45.739H106.524V49.0171C106.524 49.2044 106.574 49.3543 106.668 49.4604C106.761 49.5665 106.886 49.6165 107.042 49.6165C107.13 49.6165 107.211 49.604 107.267 49.5853C107.329 49.5665 107.379 49.5416 107.429 49.5166C107.473 49.4916 107.517 49.4729 107.548 49.4479C107.585 49.4292 107.617 49.4167 107.654 49.4167C107.698 49.4167 107.735 49.4292 107.76 49.4479C107.785 49.4666 107.816 49.5041 107.848 49.5478L108.285 50.2534C108.072 50.4282 107.829 50.5656 107.554 50.653C107.286 50.7404 107.005 50.7841 106.711 50.7841Z" fill="#231F20"/>
<path d="M120.823 47.5493C120.879 47.6866 120.935 47.824 120.992 47.9614C121.048 47.8178 121.104 47.6804 121.16 47.543C121.216 47.4057 121.285 47.2745 121.347 47.1497L123.87 42.4292C123.901 42.373 123.932 42.3231 123.97 42.2856C124.001 42.2482 124.039 42.2232 124.082 42.2107C124.126 42.1982 124.17 42.1857 124.22 42.1795C124.27 42.1732 124.332 42.1732 124.401 42.1732H125.6V50.69H124.201V45.1828C124.201 45.0829 124.201 44.9705 124.207 44.8456C124.213 44.727 124.22 44.6021 124.232 44.4773L121.653 49.3101C121.597 49.4225 121.516 49.5036 121.422 49.5661C121.329 49.6285 121.216 49.6597 121.091 49.6597H120.873C120.748 49.6597 120.636 49.6285 120.542 49.5661C120.448 49.5036 120.373 49.4225 120.311 49.3101L117.701 44.4585C117.72 44.5896 117.726 44.7145 117.732 44.8394C117.738 44.9643 117.738 45.0767 117.738 45.1828V50.69H116.34V42.167H117.539C117.607 42.167 117.67 42.167 117.72 42.1732C117.77 42.1795 117.82 42.1857 117.857 42.2045C117.901 42.2232 117.938 42.2482 117.97 42.2794C118.007 42.3168 118.038 42.3606 118.069 42.423L120.617 47.1559C120.704 47.2808 120.767 47.4119 120.823 47.5493Z" fill="#231F20"/>
<path d="M134.341 50.6907H133.686C133.548 50.6907 133.442 50.672 133.361 50.6283C133.28 50.5846 133.224 50.5034 133.186 50.3785L133.055 49.9477C132.899 50.0851 132.749 50.2037 132.605 50.3098C132.456 50.416 132.306 50.5034 132.15 50.5721C131.993 50.6408 131.825 50.697 131.65 50.7344C131.475 50.7719 131.275 50.7844 131.063 50.7844C130.807 50.7844 130.57 50.7469 130.358 50.6782C130.139 50.6096 129.958 50.5034 129.802 50.366C129.646 50.2287 129.527 50.0538 129.44 49.854C129.352 49.648 129.309 49.4107 129.309 49.136C129.309 48.905 129.371 48.6802 129.49 48.4616C129.608 48.2368 129.808 48.037 130.089 47.856C130.37 47.6749 130.738 47.525 131.201 47.4064C131.663 47.2878 132.237 47.2316 132.93 47.2316V46.8819C132.93 46.4761 132.843 46.1701 132.674 45.9765C132.505 45.783 132.256 45.6831 131.931 45.6831C131.694 45.6831 131.5 45.708 131.344 45.7642C131.188 45.8204 131.051 45.8829 130.932 45.9516C130.813 46.0202 130.707 46.0827 130.607 46.1389C130.507 46.1951 130.401 46.2201 130.283 46.2201C130.183 46.2201 130.102 46.1951 130.027 46.1451C129.958 46.0952 129.902 46.0327 129.858 45.9578L129.596 45.4895C130.289 44.8526 131.132 44.5342 132.112 44.5342C132.468 44.5342 132.78 44.5904 133.061 44.709C133.336 44.8276 133.573 44.9837 133.767 45.1898C133.96 45.3958 134.104 45.6456 134.204 45.9266C134.304 46.2138 134.354 46.526 134.354 46.8694V50.6907H134.341ZM131.513 49.7854C131.663 49.7854 131.8 49.7729 131.925 49.7416C132.05 49.7167 132.168 49.673 132.281 49.623C132.393 49.5668 132.499 49.5044 132.605 49.4232C132.712 49.342 132.818 49.2484 132.924 49.1422V48.1307C132.499 48.1307 132.143 48.1557 131.862 48.2119C131.575 48.2681 131.35 48.3305 131.176 48.4179C131.001 48.4991 130.882 48.599 130.807 48.7114C130.732 48.8238 130.701 48.9424 130.701 49.0735C130.701 49.3295 130.776 49.5169 130.926 49.623C131.069 49.7292 131.269 49.7854 131.513 49.7854Z" fill="#231F20"/>
<path d="M138.132 50.6906V44.6402H138.987C139.137 44.6402 139.243 44.6652 139.299 44.7214C139.356 44.7776 139.399 44.8713 139.418 45.0024L139.506 45.7329C139.724 45.3583 139.974 45.0648 140.267 44.8463C140.561 44.6278 140.885 44.5216 141.248 44.5216C141.547 44.5216 141.791 44.5903 141.991 44.7277L141.803 45.8204C141.791 45.889 141.766 45.939 141.728 45.9702C141.691 46.0014 141.635 46.0139 141.566 46.0139C141.51 46.0139 141.429 46.0014 141.322 45.9702C141.223 45.9452 141.085 45.9265 140.917 45.9265C140.611 45.9265 140.355 46.0077 140.136 46.1763C139.918 46.3448 139.737 46.5884 139.587 46.913V50.6781H138.132V50.6906Z" fill="#231F20"/>
<path d="M145.306 50.6906V44.6402H146.161C146.311 44.6402 146.417 44.6652 146.473 44.7214C146.529 44.7776 146.573 44.8713 146.592 45.0024L146.679 45.7329C146.898 45.3583 147.148 45.0648 147.441 44.8463C147.735 44.6278 148.059 44.5216 148.421 44.5216C148.721 44.5216 148.965 44.5903 149.164 44.7277L148.977 45.8204C148.965 45.889 148.94 45.939 148.902 45.9702C148.865 46.0014 148.809 46.0139 148.74 46.0139C148.684 46.0139 148.602 46.0014 148.496 45.9702C148.396 45.9452 148.259 45.9265 148.09 45.9265C147.785 45.9265 147.529 46.0077 147.31 46.1763C147.091 46.3448 146.91 46.5884 146.76 46.913V50.6781H145.306V50.6906Z" fill="#231F20"/>
<path d="M154.252 42.8793C154.252 43.0042 154.227 43.1229 154.177 43.2352C154.127 43.3476 154.059 43.4413 153.971 43.5225C153.884 43.6036 153.79 43.6723 153.671 43.7223C153.559 43.7722 153.434 43.7972 153.303 43.7972C153.178 43.7972 153.059 43.7722 152.947 43.7223C152.835 43.6723 152.735 43.6099 152.654 43.5225C152.572 43.4413 152.504 43.3414 152.454 43.2352C152.404 43.1291 152.379 43.0105 152.379 42.8793C152.379 42.7482 152.404 42.6296 152.454 42.5109C152.504 42.3986 152.566 42.2987 152.654 42.2175C152.735 42.1363 152.835 42.0676 152.947 42.0177C153.059 41.9677 153.178 41.9427 153.303 41.9427C153.434 41.9427 153.553 41.9677 153.671 42.0177C153.784 42.0676 153.884 42.1301 153.971 42.2175C154.059 42.2987 154.121 42.3986 154.177 42.5109C154.221 42.6296 154.252 42.7482 154.252 42.8793ZM154.034 44.6464V50.6968H152.579V44.6464H154.034Z" fill="#231F20"/>
<path d="M160.535 44.5466C160.916 44.5466 161.266 44.6091 161.591 44.7277C161.909 44.8526 162.184 45.0274 162.421 45.2584C162.652 45.4895 162.833 45.7767 162.964 46.1201C163.095 46.4573 163.158 46.8507 163.158 47.2877C163.158 47.4001 163.151 47.4875 163.145 47.5625C163.133 47.6374 163.12 47.6936 163.089 47.731C163.064 47.7748 163.027 47.7997 162.983 47.8185C162.939 47.8372 162.883 47.8434 162.821 47.8434H159.08C159.124 48.4616 159.293 48.9174 159.58 49.2109C159.873 49.5043 160.254 49.6479 160.735 49.6479C160.972 49.6479 161.172 49.623 161.347 49.5668C161.516 49.5106 161.665 49.4481 161.797 49.3857C161.921 49.317 162.034 49.2608 162.134 49.2046C162.227 49.1484 162.321 49.1235 162.415 49.1235C162.471 49.1235 162.527 49.1359 162.571 49.1609C162.615 49.1859 162.652 49.2171 162.683 49.2608L163.108 49.7916C162.945 49.9789 162.764 50.1412 162.565 50.2661C162.365 50.391 162.152 50.4971 161.934 50.572C161.715 50.647 161.491 50.7032 161.266 50.7344C161.041 50.7656 160.822 50.7843 160.61 50.7843C160.192 50.7843 159.798 50.7157 159.436 50.572C159.074 50.4284 158.762 50.2286 158.494 49.9539C158.225 49.6792 158.019 49.342 157.863 48.9424C157.707 48.5428 157.632 48.0745 157.632 47.5437C157.632 47.1316 157.701 46.7445 157.832 46.3761C157.963 46.014 158.156 45.6955 158.406 45.427C158.656 45.1585 158.962 44.9462 159.318 44.7901C159.68 44.6278 160.086 44.5466 160.535 44.5466ZM160.566 45.5956C160.142 45.5956 159.811 45.7143 159.567 45.9578C159.33 46.195 159.174 46.5385 159.105 46.9755H161.84C161.84 46.7882 161.815 46.6071 161.765 46.4448C161.715 46.2762 161.634 46.1326 161.528 46.0077C161.422 45.8828 161.291 45.7829 161.128 45.708C160.972 45.6268 160.779 45.5956 160.566 45.5956Z" fill="#231F20"/>
<path d="M170.951 50.6906C170.763 50.6906 170.639 50.6032 170.582 50.4283L170.464 49.8414C170.339 49.985 170.208 50.1099 170.07 50.2223C169.933 50.3347 169.783 50.4346 169.627 50.5157C169.471 50.5969 169.296 50.6594 169.115 50.7093C168.934 50.753 168.734 50.778 168.522 50.778C168.191 50.778 167.891 50.7093 167.616 50.5719C167.342 50.4346 167.104 50.2348 166.905 49.9725C166.705 49.7103 166.555 49.3856 166.443 49.0047C166.336 48.6176 166.28 48.1805 166.28 47.6872C166.28 47.2377 166.343 46.8256 166.461 46.4384C166.586 46.0513 166.761 45.7204 166.986 45.4332C167.211 45.1522 167.485 44.9274 167.804 44.7713C168.122 44.609 168.478 44.534 168.878 44.534C169.215 44.534 169.502 44.5902 169.746 44.6964C169.983 44.8025 170.201 44.9461 170.389 45.1272V41.9303H171.844V50.6906H170.951ZM169.015 49.6229C169.315 49.6229 169.577 49.5604 169.789 49.4355C170.002 49.3107 170.201 49.1296 170.389 48.8986V46.1887C170.226 45.9889 170.045 45.8453 169.852 45.7641C169.658 45.6829 169.446 45.6392 169.221 45.6392C169.003 45.6392 168.803 45.6829 168.622 45.7641C168.441 45.8453 168.291 45.9701 168.166 46.1387C168.041 46.3073 167.947 46.5196 167.879 46.7756C167.81 47.0316 167.779 47.3376 167.779 47.6872C167.779 48.0431 167.81 48.3428 167.866 48.5864C167.922 48.8299 168.004 49.0297 168.11 49.1858C168.216 49.3419 168.347 49.4543 168.497 49.523C168.653 49.5916 168.828 49.6229 169.015 49.6229Z" fill="#231F20"/>
<path d="M22.2279 48.3425L1.81641 46.9126L22.2279 45.489V48.3425Z" fill="#EE2D42"/>
<path d="M178.84 45.4893L199.245 46.9129L178.84 48.3427V45.4893Z" fill="#EE2D42"/>
</svg>
